<svg xmlns="http://www.w3.org/2000/svg" style="isolation:isolate" width="386" height="436"><defs><clipPath id="a"><path d="M0 0h386v436H0z"/></clipPath></defs><g clip-path="url(#a)"><path d="M157.939 296.79c10.224-2.278 21.671-3.553 33.745-3.553 12.074 0 23.514 1.275 33.738 3.553h44.762v32.225h-.021c.014.286.021.572.021.859 0 20.221-35.179 36.638-78.5 36.638-43.328 0-78.507-16.417-78.507-36.638 0-.287.007-.573.027-.859h-.027V296.79h44.762z" fill-rule="evenodd" fill="#B32A85"/><ellipse vector-effect="non-scaling-stroke" cx="191.68" cy="295.93" rx="78.5" ry="36.64" fill="#E338AA"/><radialGradient id="b" fx=".5" fy=".5" cx=".5" cy=".5" r="1" gradientTransform="matrix(157.005 0 0 73.275 113.179 259.294)" gradientUnits="userSpaceOnUse"><stop offset="0%" stop-color="#46002f"/><stop offset="43%" stop-opacity=".86" stop-color="#680d4a"/><stop offset="100%" stop-opacity=".55" stop-color="#b32a85"/></radialGradient><ellipse vector-effect="non-scaling-stroke" cx="191.68" cy="295.93" rx="78.5" ry="36.64" fill="url(#b)"/><path d="M148.414 221.822c13.509-3.009 28.631-4.694 44.583-4.694 15.952 0 31.065 1.685 44.574 4.694h59.136v42.574h-.027c.018.378.027.757.027 1.136 0 26.715-46.476 48.404-103.71 48.404-57.243 0-103.72-21.689-103.72-48.404 0-.379.009-.758.037-1.136h-.037v-42.574h59.137z" fill-rule="evenodd" fill="#2598EB"/><ellipse vector-effect="non-scaling-stroke" cx="192.99" cy="220.69" rx="103.71" ry="48.4" fill="#34AAFF"/><radialGradient id="c" fx=".5" fy=".5" cx=".5" cy=".5" r="1" gradientTransform="matrix(207.429 0 0 96.241 89.279 172.851)" gradientUnits="userSpaceOnUse"><stop offset="0%" stop-color="#00030a"/><stop offset="43%" stop-opacity=".69" stop-color="#0c253a"/><stop offset="100%" stop-opacity="0" stop-color="#266fa3"/></radialGradient><ellipse vector-effect="non-scaling-stroke" cx="192.99" cy="220.97" rx="103.71" ry="48.12" fill="url(#c)"/><path d="M138.144 129.999c16.623-3.797 35.231-5.923 54.861-5.923 19.63 0 38.227 2.126 54.85 5.923h72.77v53.714h-.033c.022.477.033.954.033 1.433 0 33.705-57.191 61.069-127.62 61.069-70.44 0-127.631-27.364-127.631-61.069 0-.479.011-.956.044-1.433h-.044v-53.714h72.77z" fill-rule="evenodd" fill="#8F33BB"/><ellipse vector-effect="non-scaling-stroke" cx="193" cy="128.57" rx="127.62" ry="61.07" fill="#C241FF"/><path d="M185.898 113.426c.523.261.447.717-.161 1.021l-25.726 12.849c-.608.304-1.521.341-2.044.08l-7.036-3.518c-.523-.262-.447-.718.161-1.022l25.727-12.848c.608-.304 1.52-.342 2.043-.08l7.036 3.518zm23.309 3.289c.522.262.447.718-.16 1.021l-34.097 17.029c-.608.304-1.521.342-2.044.08l-7.036-3.518c-.523-.261-.447-.717.161-1.021l34.097-17.03c.607-.303 1.519-.34 2.042-.079l7.037 3.518zm26.355 1.768c.523.262.447.718-.162 1.021l-45.511 22.731c-.608.304-1.521.341-2.044.08l-7.036-3.518c-.523-.262-.447-.718.161-1.022l45.512-22.73c.608-.304 1.521-.341 2.043-.08l7.037 3.518z" fill-rule="evenodd" fill="#FFF"/></g></svg>