<svg xmlns="http://www.w3.org/2000/svg" style="isolation:isolate" width="386" height="436"><defs><clipPath id="a"><path d="M0 0h386v436H0z"/></clipPath></defs><g clip-path="url(#a)" fill="#5540CC"><path d="M191.691 368.454c-21.093 0-40.955-3.849-55.93-10.837-15.339-7.158-23.786-16.806-23.786-27.165 0-.22.004-.439.014-.658a1.442 1.442 0 0 1-.014-.198V297.49a1.5 1.5 0 0 1 3 0v31.837c.024.123.033.249.024.376a10.39 10.39 0 0 0-.024.749c0 19.3 34.415 35.002 76.716 35.002 42.298 0 76.71-15.702 76.71-35.002 0-.262-.006-.523-.019-.784a1.533 1.533 0 0 1 .019-.319V299.49a1.5 1.5 0 0 1 3 0v30.106c0 .063-.004.126-.012.187.008.223.012.445.012.669 0 10.359-8.447 20.007-23.785 27.165-14.974 6.988-34.835 10.837-55.925 10.837z"/><path d="M191.688 334.635c-21.09 0-40.951-3.849-55.924-10.837-15.338-7.158-23.785-16.805-23.785-27.164 0-.828 3.025 1.084 3.079 1.622 1.863 18.551 35.523 33.381 76.63 33.381 40.059 0 73.045-14.084 76.425-31.971.189-.999 3.201-1.003 3.04-.001-1.483 9.2-9.709 17.679-23.538 24.133-14.973 6.988-34.835 10.837-55.927 10.837z"/><path d="M193.005 316.073c-27.798 0-53.968-5.069-73.689-14.272-20.085-9.374-31.146-21.965-31.146-35.454 0-.298.005-.596.019-.894a1.421 1.421 0 0 1-.019-.237V222.8a1.5 1.5 0 1 1 2.999 0v42.11c.03.135.042.273.032.412-.024.342-.032.683-.032 1.025 0 25.765 45.683 46.726 101.836 46.726 56.147 0 101.827-20.961 101.827-46.726 0-.354-.009-.708-.025-1.061-.006-.12.003-.239.025-.356V222.8a1.5 1.5 0 1 1 3 0v42.416c0 .076-.006.151-.016.224.01.303.016.605.016.907 0 13.489-11.061 26.08-31.146 35.454-19.721 9.203-45.888 14.272-73.681 14.272z"/><path d="M193 271.393c-27.794 0-53.961-5.068-73.681-14.271-20.085-9.375-31.146-21.965-31.146-35.454a1.5 1.5 0 0 1 3.001 0c0 25.764 45.679 46.725 101.826 46.725 56.147 0 101.826-20.961 101.826-46.725a1.5 1.5 0 0 1 3 0c0 13.49-11.059 26.08-31.141 35.454-19.719 9.203-45.888 14.271-73.685 14.271z"/><path d="M193.005 248.601c-34.161 0-66.317-6.384-90.543-17.976-24.579-11.76-38.114-27.517-38.114-44.366 0-.386.007-.772.026-1.157a1.423 1.423 0 0 1-.026-.271v-53.516a1.498 1.498 0 1 1 2.996 0v53.182c.036.142.051.29.041.439-.031.44-.041.881-.041 1.323 0 32.723 56.371 59.346 125.661 59.346 69.283 0 125.649-26.623 125.649-59.346 0-.454-.01-.908-.031-1.36a1.53 1.53 0 0 1 .031-.377v-53.207a1.498 1.498 0 0 1 2.997 0v53.516c0 .086-.007.17-.021.251.014.392.021.785.021 1.177 0 16.849-13.536 32.606-38.112 44.366-24.225 11.592-56.378 17.976-90.534 17.976z"/><path d="M192.999 70.545c-69.285 0-125.652 26.622-125.652 59.345 0 32.722 56.367 59.344 125.652 59.344s125.652-26.622 125.652-59.344c0-32.723-56.367-59.345-125.652-59.345zm0 121.687c-34.16 0-66.314-6.384-90.539-17.976-24.577-11.759-38.111-27.516-38.111-44.366s13.534-32.607 38.111-44.367c24.225-11.592 56.379-17.976 90.539-17.976 34.16 0 66.314 6.384 90.539 17.976 24.576 11.76 38.111 27.517 38.111 44.367 0 16.85-13.535 32.607-38.111 44.366-24.225 11.592-56.379 17.976-90.539 17.976z"/><path d="M185.918 114.805c.521.26.445.715-.16 1.017l-25.632 12.802c-.606.302-1.515.34-2.036.079l-7.01-3.505c-.521-.26-.445-.714.161-1.017l25.631-12.801c.606-.303 1.515-.341 2.035-.08l7.011 3.505zm23.222 3.277c.521.261.446.715-.16 1.017l-33.97 16.967c-.607.302-1.515.34-2.036.079l-7.01-3.505c-.522-.26-.445-.715.161-1.017l33.971-16.967c.603-.302 1.512-.339 2.034-.079l7.01 3.505zm26.257 1.762c.522.26.446.714-.161 1.017l-45.342 22.646c-.606.303-1.515.341-2.037.08l-7.009-3.505c-.522-.26-.447-.715.161-1.017l45.343-22.647c.606-.302 1.514-.34 2.036-.079l7.009 3.505z" fill-rule="evenodd"/></g></svg>