<svg xmlns="http://www.w3.org/2000/svg" style="isolation:isolate" width="386" height="436"><defs><clipPath id="a"><path d="M0 0h386v436H0z"/></clipPath></defs><g clip-path="url(#a)" fill="#5540CC"><path d="M193.35 295.674c-1.955 0-3.91-.445-5.692-1.337L5.257 203.136a5.856 5.856 0 0 1-3.232-5.8v-63.668a1.333 1.333 0 1 1 2.666 0v63.731c0 .044-.002.089-.007.133a3.206 3.206 0 0 0 1.765 3.22l182.401 91.2a10.098 10.098 0 0 0 8.999 0l182.403-91.2a3.254 3.254 0 0 0 1.782-2.884c0-.13-.007-.259-.024-.387a1.37 1.37 0 0 1-.011-.169v-63.644a1.333 1.333 0 1 1 2.666 0v63.565a5.86 5.86 0 0 1-3.219 5.902l-182.405 91.202a12.727 12.727 0 0 1-5.691 1.337z"/><path d="M252.708 234.92a1 1 0 0 1 1.447.899v.57c0 .763-.429 1.459-1.106 1.789a80634.306 80634.306 0 0 1-28.044 14.024.988.988 0 0 1-.973-.046.99.99 0 0 1-.474-.842v-.581a2.01 2.01 0 0 1 1.105-1.79c4.669-2.335 22.773-11.38 28.045-14.023zm40.182-20.086v3.429l-30.596 15.301v-3.429l30.596-15.301z" fill-rule="evenodd"/><path d="M193.35 230.455c-1.955 0-3.91-.446-5.692-1.338l-58.695-29.346C83.229 176.906 26.157 148.373 5.256 137.916 3.281 136.94 2 134.871 2 132.646a5.858 5.858 0 0 1 3.254-5.259c23.133-11.564 90.027-45.014 137.364-68.688a1.334 1.334 0 1 1 1.192 2.385C96.473 84.758 29.579 118.208 6.449 129.771a3.204 3.204 0 0 0-1.783 2.875c0 1.218.698 2.35 1.777 2.884 20.907 10.459 77.978 38.992 123.712 61.857l58.695 29.345a10.099 10.099 0 0 0 8.998 0l62.339-31.167c45.076-22.537 99.712-49.852 120.061-60.032a3.235 3.235 0 0 0 1.784-2.887 3.206 3.206 0 0 0-1.785-2.876c-22.054-11.033-84.386-42.197-131.171-65.588l-4.078-2.038a1.333 1.333 0 0 1 1.192-2.385l4.077 2.039c46.786 23.391 109.118 54.554 131.175 65.589a5.858 5.858 0 0 1 3.256 5.259c0 2.224-1.281 4.294-3.262 5.273-20.344 10.178-74.981 37.494-120.057 60.03l-62.338 31.168a12.721 12.721 0 0 1-5.691 1.338z"/><path d="M245.595 205.481a1.332 1.332 0 0 1-.597-2.525l3.619-1.81a835531.2 835531.2 0 0 0 131.631-65.818 3.206 3.206 0 0 0 1.784-2.875c0-1.218-.699-2.35-1.778-2.884a3294515.95 3294515.95 0 0 0-136.16-68.086 1.332 1.332 0 1 1 1.191-2.384c47.235 23.617 113.309 56.656 136.157 68.083a5.841 5.841 0 0 1 3.256 5.271 5.858 5.858 0 0 1-3.255 5.258 778994.882 778994.882 0 0 1-131.633 65.82l-3.62 1.809a1.326 1.326 0 0 1-.595.141zm-102.382 1.059a1.32 1.32 0 0 1-.595-.141C95.28 182.726 28.387 149.276 5.256 137.712A5.858 5.858 0 0 1 2 132.453a5.845 5.845 0 0 1 3.261-5.274c12.77-6.388 39.059-19.531 68.013-34.007l68.809-34.404a1.334 1.334 0 0 1 1.192 2.384l-68.81 34.405a451754.126 451754.126 0 0 0-68.017 34.009 3.237 3.237 0 0 0-1.782 2.887c0 1.221.684 2.323 1.784 2.876 23.129 11.563 90.023 45.012 137.36 68.686a1.333 1.333 0 0 1-.597 2.525z"/><path d="M11.312 148.05l.094.011h.094l.094.011.094.012.093.011.047.012.046.011.047.011.047.012.046.011.045.012.047.011.045.011.046.012.046.022.045.012.045.023.044.011.045.023.045.011.043.023.045.023.043.023 163.474 81.196.127.057.126.068.123.069.122.067.121.08.118.069.118.08.114.08.117.079.112.08.112.091.11.08.108.091.106.091.104.08.104.103.2.182.097.102.096.103.094.091.092.102.091.103.088.114.086.103.086.102.083.114.081.114.078.114.079.103.075.125.144.228.069.113.066.125.065.115.064.125.059.126.06.125.059.125.053.126.053.125.051.125.049.125.044.137.045.126.042.136.038.137.038.125.034.136.032.138.031.136.028.137.024.137.025.137.02.136.018.136.016.138.014.148.012.137.008.136.006.148.004.137.002.148v39.989l-.002.045-.001.056-.001.046-.004.047-.003.045-.003.046-.006.057-.004.045-.008.046-.007.044-.008.046-.009.047-.008.045-.012.057-.011.046-.01.045-.013.046-.013.044-.028.092-.032.092-.034.079-.036.092-.041.079-.041.091-.045.08-.046.08-.05.08-.052.079-.056.08-.056.079-.059.069-.062.069-.033.034-.032.033-.033.035-.032.034-.036.035-.035.034-.035.033-.035.035-.036.023-.036.034-.038.033-.039.024-.038.034-.04.022-.039.035-.041.023-.04.034-.041.023-.042.023-.041.022-.042.023-.044.022-.042.024-.044.022-.042.023-.044.023-.045.023-.041.01-.045.024-.045.012-.044.022-.045.012-.045.011-.045.023-.047.011-.045.011-.093.023-.091.022-.092.013-.095.022-.093.012-.092.011h-.472l-.094-.011-.095-.012-.092-.022h-.047l-.047-.013-.048-.01-.045-.012-.048-.011-.044-.012-.046-.011-.047-.023-.044-.011-.045-.011-.045-.024-.046-.01-.044-.012-.046-.024-.044-.021-.045-.012-.044-.023-.043-.023L11.04 197.38l-.079-.034-.079-.045-.077-.046-.076-.034-.076-.046-.075-.057-.073-.045-.073-.046-.072-.057-.07-.045-.07-.057-.068-.046-.067-.057-.066-.057-.066-.057-.064-.057-.064-.057-.061-.057-.062-.068-.059-.057-.06-.068-.057-.057-.056-.069-.056-.068-.054-.068-.053-.057-.052-.08-.051-.068-.049-.069-.048-.068-.047-.068-.046-.08-.044-.069-.044-.068-.042-.08-.04-.079-.04-.069-.037-.08-.038-.079-.035-.08-.034-.08-.034-.08-.03-.079-.031-.08-.028-.08-.028-.08-.026-.079-.024-.08-.024-.091-.021-.08-.021-.091-.018-.08-.019-.091-.015-.08-.014-.079-.014-.092-.011-.091-.011-.079-.007-.092-.007-.091-.006-.08-.004-.091-.003-.091V151l.002-.045.004-.091.003-.057.01-.091.005-.046.007-.046.008-.057.016-.091.031-.136.011-.046.013-.046.013-.045.029-.091.03-.091.034-.092.037-.079.039-.091.042-.08.045-.08.047-.091.049-.08.052-.068.055-.08.057-.08.059-.068.063-.08.064-.068.033-.034.103-.103.035-.023.035-.034.037-.034.038-.023.075-.068.038-.023.039-.034.04-.023.04-.034.123-.068.042-.035.084-.045.044-.023.042-.011.086-.046.089-.046.043-.011.045-.023.046-.011.044-.012.045-.022.045-.012.091-.022.277-.069.187-.023.094-.011h.094l.094-.011h.095zm-.053 2.666h-.011l-.01.011h-.051l-.02.011h-.026l-.005.012h-.019l-.005.011h-.014l-.005.011h-.013l-.005.012h-.014l-.003.011h-.009l-.004.012h-.011l-.005.011h-.007l-.001.011-.012.012-.007.011h-.007l-.006.012-.005.011-.006.011h-.004l-.006.012-.005.011-.005.012-.003.011-.004.011-.004.012-.006.011-.001.012h-.001l-.001.011h-.001l-.001.011h-.001l-.001.012h-.001v.011h-.002v.023h-.001v41.846l.001.057.002.034.001.045.003.046.002.034.005.046.004.045.006.034.006.046.007.034.008.046.007.034.009.046.02.068.01.045.012.035.012.045.013.034.013.035.014.045.03.068.016.035.017.034.017.045.018.035.018.034.019.034.02.034.019.034.022.034.022.035.021.034.046.068.024.034.024.023.025.034.025.035.025.034.027.022.026.035.028.034.029.023.028.034.028.023.03.022.03.035.03.022.031.023.032.023.032.034.032.023.033.023.033.022.102.069.036.023.036.022.037.012.036.023.048.022 165.119 82.017.018.011h.015l.02.012h.03l.008.011h.134l.009-.011h.031l.005-.012h.025l.003-.011h.02l.004-.011h.016l.004-.013h.008l.004-.01h.014l.003-.011h.009l.003-.012h.01l.004-.012h.002l.012-.011.015-.022h.005l.016-.035.005-.012h.006l.009-.022.007-.024.004-.01v-.011h.004l.002-.023h.001l.001-.012h.001v-.011h.001v-.012l.002-.011v-39.989l-.002-.113-.002-.092-.004-.091-.006-.102-.006-.091-.009-.091-.012-.092-.012-.091-.014-.091-.015-.091-.017-.091-.019-.092-.021-.09-.021-.092-.022-.091-.026-.091-.026-.092-.027-.079-.03-.091-.03-.081-.032-.09-.036-.08-.033-.091-.036-.079-.039-.092-.039-.079-.041-.08-.042-.08-.043-.081-.045-.079-.046-.079-.047-.08-.048-.08-.05-.079-.054-.069-.052-.079-.053-.069-.055-.08-.057-.068-.057-.069-.061-.068-.06-.068-.062-.069-.063-.068-.063-.068-.064-.068-.067-.057-.066-.069-.07-.057-.07-.057-.07-.068-.072-.057-.074-.058-.074-.056-.074-.046-.076-.056-.078-.057-.079-.046-.08-.057-.08-.046-.082-.045-.082-.046-.084-.046-.095-.045-163.452-81.185-.014-.011h-.021l-.005-.012h-.025l-.005-.011h-.062l-.01-.011h-.021z" fill-rule="evenodd"/><path d="M193.35 365.838c-1.955 0-3.91-.445-5.691-1.336L5.257 273.301a5.856 5.856 0 0 1-3.232-5.801v-63.667a1.333 1.333 0 1 1 2.666 0v63.73c0 .045-.002.088-.007.133a3.204 3.204 0 0 0 1.765 3.22l182.401 91.201a10.113 10.113 0 0 0 9 0l182.402-91.201a3.251 3.251 0 0 0 1.782-2.884c0-.13-.007-.258-.024-.385a1.399 1.399 0 0 1-.011-.17v-63.644a1.333 1.333 0 1 1 2.666 0v63.565a5.86 5.86 0 0 1-3.22 5.902l-182.404 91.202a12.726 12.726 0 0 1-5.691 1.336z"/><path d="M252.708 305.088c.31-.148.678-.138.973.046a.996.996 0 0 1 .474.853v.571c0 .762-.429 1.458-1.106 1.788-4.669 2.336-22.774 11.392-28.044 14.025a.988.988 0 0 1-.973-.047.99.99 0 0 1-.474-.842v-.581c0-.752.427-1.447 1.105-1.79 4.669-2.335 22.773-11.38 28.045-14.023zm40.182-20.086v3.43l-30.597 15.299v-3.428l30.597-15.301z" fill-rule="evenodd"/><path d="M193.35 300.623c-1.955 0-3.91-.446-5.692-1.338l-54.547-27.272C86.741 248.83 26.794 218.86 5.256 208.084 3.281 207.108 2 205.039 2 202.814v-18.068a1.333 1.333 0 1 1 2.666 0v18.068c0 1.218.698 2.35 1.777 2.884 21.543 10.778 81.49 40.748 127.86 63.931L188.85 296.9a10.099 10.099 0 0 0 8.998 0l58.199-29.097c45.816-22.907 103.225-51.608 124.201-62.102a3.235 3.235 0 0 0 1.784-2.887v-22.626a1.333 1.333 0 1 1 2.666 0v22.626c0 2.224-1.281 4.294-3.262 5.273-20.972 10.492-78.381 39.194-124.196 62.1l-58.199 29.098a12.721 12.721 0 0 1-5.691 1.338z"/><path d="M11.312 218.218l.094.011h.094l.094.011.094.012.093.011.047.012.046.01.047.013.047.011.046.011.045.012.047.011.045.012.046.01.046.024.045.011.045.023.044.011.045.023.045.011.043.022.045.024.043.023 163.474 81.196.127.057.126.069.123.068.122.067.121.08.118.069.118.08.114.08.117.08.112.079.112.092.11.079.108.092.106.091.104.079.104.103.2.182.097.102.096.103.094.091.092.103.091.103.088.113.172.206.083.113.081.114.078.114.079.103.075.125.144.228.069.114.066.125.065.114.064.125.059.126.06.125.059.125.053.126.053.125.051.125.049.126.044.136.045.126.042.136.038.137.038.126.034.135.032.138.031.137.028.136.024.137.025.137.02.137.018.135.016.138.014.148.012.137.008.136.006.148.004.137.002.148v39.989l-.002.046-.001.056-.001.046-.004.045-.003.046-.003.046-.006.057-.004.046-.008.045-.007.045-.008.046-.009.045-.008.046-.012.057-.011.046-.01.046-.013.045-.013.045-.028.091-.032.092-.034.079-.036.092-.041.079-.041.092-.045.079-.046.08-.05.08-.052.079-.056.08-.056.08-.059.069-.062.068-.033.034-.032.034-.033.035-.032.034-.036.034-.035.034-.035.034-.035.034-.036.023-.036.034-.038.034-.039.023-.038.034-.04.023-.039.035-.041.022-.04.034-.041.023-.042.023-.041.023-.042.022-.044.023-.042.023-.044.022-.042.024-.044.022-.045.023-.041.011-.045.023-.045.012-.044.022-.045.012-.045.012-.045.022-.047.012-.045.01-.093.024-.091.022-.092.012-.095.023-.093.011-.092.011h-.472l-.094-.011-.095-.011-.092-.023h-.047l-.047-.012-.048-.011-.045-.011-.048-.012-.044-.012-.046-.01-.047-.024-.044-.01-.045-.012-.045-.023-.046-.011-.044-.012-.046-.023-.044-.022-.045-.012-.044-.022-.043-.024L11.04 267.549l-.079-.035-.079-.045-.077-.046-.076-.034-.076-.045-.075-.057-.073-.047-.073-.045-.072-.056-.07-.046-.07-.058-.068-.046-.067-.056-.066-.056-.066-.057-.064-.057-.064-.057-.061-.057-.062-.069-.059-.057-.06-.068-.057-.057-.056-.068-.056-.069-.054-.068-.053-.057-.052-.08-.051-.068-.049-.068-.048-.069-.047-.069-.046-.08-.044-.067-.044-.069-.042-.079-.04-.081-.04-.068-.037-.079-.038-.08-.035-.08-.034-.08-.034-.079-.03-.08-.031-.08-.028-.081-.028-.078-.026-.08-.024-.08-.024-.092-.021-.079-.021-.092-.018-.08-.019-.09-.015-.08-.014-.08-.014-.09-.011-.091-.011-.08-.007-.091-.007-.092-.006-.079-.004-.091-.003-.092v-41.993l.002-.046.004-.092.003-.056.01-.091.005-.046.007-.045.008-.057.016-.091.031-.137.011-.046.013-.045.013-.046.029-.091.03-.091.034-.091.037-.08.039-.091.042-.08.045-.08.047-.091.049-.08.052-.068.055-.081.057-.079.059-.068.063-.08.064-.068.033-.035.103-.102.035-.023.035-.034.037-.034.038-.023.075-.068.038-.023.039-.034.04-.023.04-.034.123-.068.042-.035.084-.045.044-.023.042-.011.086-.047.089-.044.043-.012.045-.022.046-.012.044-.011.045-.024.045-.01.091-.023.277-.069.187-.023.094-.011h.094l.094-.011h.095zm-.064 2.666l-.01.011h-.052l-.019.011h-.026l-.005.012h-.019l-.006.011h-.013l-.005.012h-.013l-.005.01h-.014l-.004.013h-.012l-.004.011h-.008l-.004.011h-.007l-.001.012-.012.011-.007.011h-.006l-.007.011-.005.012-.006.012h-.004l-.006.011-.005.01-.005.013-.003.011-.004.012-.004.011-.006.011-.001.012h-.001l-.001.01h-.001l-.001.013h-.001l-.001.011h-.001v.011h-.002v.023h-.001v41.846l.001.056.002.035.001.046.003.044.002.035.005.046.004.045.006.035.006.045.007.034.008.046.007.034.009.046.02.068.01.046.012.034.012.045.013.035.013.033.014.046.015.034.015.035.016.034.017.034.017.046.036.068.019.033.02.035.021.035.02.034.022.034.021.033.023.035.023.034.024.035.024.021.025.036.05.068.027.023.026.034.028.023.029.034.028.034.028.023.03.023.03.033.03.024.031.022.032.023.032.034.032.022.033.024.033.023.034.022.034.023.035.023.036.023.035.023.037.011.036.023.048.023 165.119 82.016.018.012h.015l.02.011h.03l.008.011h.134l.009-.011h.031l.005-.011h.025l.003-.012h.02l.004-.011h.016l.004-.012h.008l.004-.011h.013l.004-.011h.009l.003-.012h.01l.004-.012h.002l.012-.01.015-.024h.005l.016-.034.005-.011h.006l.009-.023.007-.023.004-.011v-.011h.004l.002-.023h.001l.001-.011h.001v-.012h.001v-.012l.002-.01v-39.99l-.002-.113-.002-.091-.004-.092-.006-.102-.006-.091-.009-.091-.012-.091-.012-.092-.014-.091-.015-.091-.017-.091-.019-.092-.021-.09-.021-.091-.022-.092-.026-.091-.026-.092-.027-.079-.03-.091-.03-.08-.032-.091-.036-.079-.033-.091-.036-.08-.039-.091-.039-.08-.041-.08-.042-.08-.043-.08-.045-.08-.046-.079-.047-.08-.048-.079-.05-.08-.054-.068-.052-.08-.053-.069-.055-.079-.057-.069-.057-.069-.061-.067-.06-.069-.062-.068-.063-.068-.063-.069-.064-.068-.067-.057-.066-.069-.07-.056-.07-.057-.07-.069-.072-.057-.074-.058-.074-.056-.074-.045-.076-.057-.078-.057-.079-.046-.08-.057-.08-.045-.082-.046-.082-.045-.084-.047-.095-.045-163.453-81.185-.015-.011h-.019l-.005-.012h-.025l-.004-.011h-.063l-.01-.011h-.032z" fill-rule="evenodd"/><path d="M193.35 435.009c-1.955 0-3.91-.445-5.692-1.337l-182.401-91.2a5.859 5.859 0 0 1-3.232-5.801v-63.667a1.333 1.333 0 0 1 2.666 0v63.73c0 .045-.002.088-.007.133a3.206 3.206 0 0 0 1.765 3.22l182.401 91.2a10.095 10.095 0 0 0 8.999 0l182.403-91.2a3.254 3.254 0 0 0 1.782-2.884c0-.131-.007-.259-.024-.387a1.37 1.37 0 0 1-.011-.169v-63.643a1.333 1.333 0 0 1 2.666 0v63.564a5.864 5.864 0 0 1-3.219 5.903l-182.405 91.201a12.727 12.727 0 0 1-5.691 1.337z"/><path d="M252.708 374.253a1.02 1.02 0 0 1 .973.046.998.998 0 0 1 .474.854v.57c0 .763-.429 1.459-1.106 1.789-4.669 2.335-22.774 11.392-28.044 14.024a.988.988 0 0 1-.973-.046.99.99 0 0 1-.474-.842v-.582a2.01 2.01 0 0 1 1.105-1.789c4.669-2.335 22.773-11.38 28.045-14.024zm40.182-20.085v3.429l-30.597 15.3v-3.428l30.597-15.301z" fill-rule="evenodd"/><path d="M193.35 369.789c-1.955 0-3.91-.446-5.692-1.34l-48.848-24.421A857966.367 857966.367 0 0 1 5.256 277.251C3.281 276.275 2 274.205 2 271.979v-25.2a1.333 1.333 0 0 1 2.666 0v25.2c0 1.219.698 2.351 1.777 2.884 22.437 11.226 86.532 43.269 133.559 66.78l48.848 24.422a10.093 10.093 0 0 0 8.998.001l53.094-26.546a787054.067 787054.067 0 0 0 129.306-64.654 3.233 3.233 0 0 0 1.784-2.887 1.333 1.333 0 1 1 2.666 0c0 2.225-1.281 4.295-3.262 5.275a953416.58 953416.58 0 0 1-129.302 64.651L199.04 368.45a12.702 12.702 0 0 1-5.69 1.339z"/><path d="M11.312 287.384l.094.011h.094l.094.01.094.013.093.011.047.012.046.01.094.024.046.011.045.011.047.012.045.011.046.011.046.023.045.012.045.023.044.011.045.023.045.011.043.022.045.024.043.022 163.474 81.197.127.057.126.068.123.069.122.068.121.079.118.069.118.08.114.08.117.079.112.08.112.091.11.08.108.091.106.091.104.08.104.102.1.092.1.091.097.102.096.103.094.091.092.102.091.103.088.114.086.103.086.102.083.114.081.114.078.114.079.103.075.125.072.114.072.113.069.114.066.125.065.115.064.125.059.126.06.125.059.125.053.126.053.125.051.125.049.126.044.136.045.125.042.137.038.137.038.125.034.136.032.137.031.137.028.137.024.136.025.137.02.137.018.136.016.137.014.149.012.136.008.137.006.148.004.137.002.148v39.989l-.002.045-.001.057-.001.045-.004.046-.003.046-.003.045-.006.058-.004.045-.008.046-.007.045-.008.045-.009.046-.008.046-.012.057-.011.046-.01.045-.013.046-.013.045-.028.091-.032.091-.034.08-.036.091-.041.08-.041.091-.045.08-.046.08-.05.079-.052.08-.056.08-.056.079-.059.069-.062.068-.033.034-.032.034-.033.035-.032.034-.036.034-.035.034-.035.034-.035.035-.036.023-.036.034-.038.034-.039.023-.038.034-.04.022-.039.035-.041.023-.04.034-.041.023-.042.022-.041.024-.042.022-.044.022-.042.024-.044.022-.042.023-.044.023-.045.023-.041.011-.045.023-.045.012-.044.022-.045.012-.045.011-.045.023-.047.011-.045.011-.093.023-.091.023-.092.011-.095.024-.093.01-.092.012h-.472l-.094-.012-.095-.01-.092-.024h-.047l-.047-.011-.048-.011-.045-.012-.048-.011-.044-.012-.046-.011-.047-.023-.044-.011-.045-.011-.045-.024-.046-.01-.044-.012-.046-.023-.044-.023-.045-.011-.044-.023-.043-.023L11.04 336.714l-.079-.034-.079-.046-.077-.045-.076-.034-.076-.046-.075-.057-.073-.046-.073-.045-.072-.057-.07-.045-.07-.058-.068-.046-.067-.056-.066-.057-.066-.057-.064-.057-.064-.057-.061-.057-.062-.068-.059-.057-.06-.069-.057-.056-.056-.069-.056-.068-.054-.068-.053-.057-.052-.08-.051-.068-.049-.069-.048-.068-.047-.07-.046-.079-.044-.068-.044-.068-.042-.08-.04-.08-.04-.068-.037-.08-.038-.079-.035-.08-.034-.08-.034-.08-.03-.079-.031-.08-.028-.081-.028-.08-.026-.078-.024-.08-.024-.092-.021-.079-.021-.092-.018-.08-.019-.09-.015-.081-.014-.08-.014-.09-.011-.091-.011-.08-.007-.091-.007-.091-.006-.08-.004-.091-.003-.092v-41.993l.002-.045.004-.092.003-.056.01-.092.005-.045.007-.046.008-.057.016-.091.031-.137.011-.045.013-.046.013-.045.029-.091.03-.092.034-.091.037-.079.039-.092.042-.079.045-.08.047-.091.049-.08.052-.068.055-.081.057-.08.059-.067.063-.08.064-.068.033-.035.103-.102.035-.024.035-.033.037-.034.038-.023.075-.068.038-.023.039-.034.04-.023.04-.034.123-.069.042-.035.084-.044.044-.023.042-.012.086-.046.089-.045.043-.011.045-.024.046-.01.044-.012.045-.023.045-.011.091-.023.277-.068.187-.024.094-.01h.094l.094-.011h.095zm-.054 2.665h-.01l-.01.012h-.051l-.02.011h-.022l-.004.012h-.024l-.005.011h-.013l-.006.011h-.013l-.005.011h-.014l-.004.012h-.007l-.005.012h-.012l-.003.011h-.008l-.001.011-.012.012-.007.011h-.007l-.006.011-.005.012-.006.011h-.004l-.006.012-.005.01-.005.013-.003.011-.004.011-.004.012-.006.011-.001.011h-.001l-.001.011h-.001l-.001.012h-.002v.012h-.001v.011h-.002v.023h-.001v41.846l.001.056.002.035.001.045.003.045.002.035.005.046.004.044.006.035.006.046.007.034.008.046.007.034.009.045.01.035.01.034.01.045.012.035.012.045.013.034.013.033.014.047.015.033.015.035.016.035.017.034.017.045.018.035.018.034.019.033.02.035.021.034.02.034.022.035.021.033.023.035.023.034.024.034.024.022.025.035.025.034.025.035.027.021.026.036.028.022.029.035.028.034.028.023.03.022.03.033.03.024.031.023.032.023.032.034.032.022.033.024.033.022.068.046.07.046.036.022.037.012.036.022.048.023 165.119 82.017.018.012h.015l.015.01h.035l.008.012h.134l.009-.012h.031l.005-.01h.025l.003-.012h.02l.004-.012h.016l.004-.011h.008l.004-.011h.014l.003-.012h.009l.003-.011h.01l.004-.012h.002l.012-.011.008-.011.007-.012h.005l.016-.034.005-.012h.006l.009-.022.007-.023.004-.011.001-.012h.003v-.011h.002v-.011h.001l.001-.012h.001v-.011h.001v-.012l.002-.011v-39.989l-.002-.114-.002-.091-.004-.091-.006-.102-.006-.092-.009-.091-.012-.09-.012-.092-.014-.091-.015-.091-.017-.092-.019-.091-.021-.09-.021-.092-.022-.091-.026-.091-.026-.092-.027-.079-.03-.091-.03-.08-.032-.091-.036-.079-.033-.092-.036-.079-.039-.092-.039-.079-.041-.08-.042-.08-.043-.08-.045-.08-.046-.08-.047-.079-.048-.08-.05-.08-.054-.068-.052-.079-.053-.069-.055-.08-.058-.068-.056-.069-.061-.068-.06-.068-.062-.069-.063-.068-.063-.068-.064-.069-.067-.056-.066-.069-.07-.057-.07-.057-.07-.068-.072-.057-.074-.058-.074-.056-.074-.046-.076-.057-.078-.056-.078-.046-.081-.057-.08-.046-.082-.046-.082-.045-.084-.046-.095-.045-163.452-81.185-.014-.011h-.02l-.006-.012h-.025l-.004-.011h-.063l-.01-.012h-.022z" fill-rule="evenodd"/><path d="M193.632 120.826c-1.767 0-3.532-.402-5.143-1.208L132.8 91.778a4.465 4.465 0 0 1-2.488-4.031c0-1.703.95-3.241 2.481-4.016 7.642-3.815 22.143-11.162 22.143-11.162l1.342 2.682s-4.935 2.56-9.388 4.787a24630.11 24630.11 0 0 1-12.75 6.373c-.508.257-.829.77-.829 1.336 0 .579.316 1.094.824 1.346l55.696 27.842a8.53 8.53 0 0 0 7.602 0l11.878-5.936c14.378-7.186 34.443-17.215 43.879-21.937.509-.254.826-.764.828-1.332a1.518 1.518 0 0 0-.826-1.356 7513.286 7513.286 0 0 1-21.485-11.059l1.369-2.669s14.038 7.253 21.494 11.064c1.525.799 2.458 2.342 2.448 4.035a4.47 4.47 0 0 1-2.489 4c-9.433 4.722-29.499 14.75-43.877 21.937l-11.877 5.936a11.508 11.508 0 0 1-5.143 1.208zm86 43c-1.767 0-3.532-.402-5.143-1.208l-55.689-27.84a4.465 4.465 0 0 1-2.489-4.031c0-1.702.951-3.241 2.481-4.016 3.661-1.824 7.836-3.917 7.836-3.917l1.344 2.68s-4.177 2.095-7.833 3.917a1.498 1.498 0 0 0-.828 1.336c0 .579.315 1.094.824 1.346l55.696 27.842a8.53 8.53 0 0 0 7.602 0l11.878-5.936c14.378-7.186 34.443-17.215 43.879-21.937.509-.254.826-.764.828-1.332a1.518 1.518 0 0 0-.826-1.356l-6.733-3.439a1.499 1.499 0 0 1 1.365-2.671l6.745 3.446c1.526.799 2.459 2.342 2.449 4.035a4.47 4.47 0 0 1-2.489 4c-9.433 4.722-29.499 14.75-43.877 21.937l-11.877 5.936a11.495 11.495 0 0 1-5.143 1.208zm-86 43c-1.767 0-3.532-.403-5.143-1.208l-55.689-27.84a4.465 4.465 0 0 1-2.488-4.032c0-1.702.95-3.241 2.481-4.015l7.377-3.69 1.342 2.681-7.371 3.688c-.509.258-.83.771-.83 1.336 0 .579.316 1.095.824 1.346l55.696 27.843a8.534 8.534 0 0 0 7.602 0l13.711-6.853c14.206-7.1 33.005-16.496 42.046-21.02a1.49 1.49 0 0 0 .828-1.333 1.517 1.517 0 0 0-.826-1.355l-6.843-3.496 1.363-2.671 6.858 3.503c1.525.798 2.458 2.342 2.448 4.035a4.471 4.471 0 0 1-2.489 4c-9.039 4.523-27.838 13.92-42.044 21.02l-13.71 6.853a11.511 11.511 0 0 1-5.143 1.208zm-86-43c-1.767 0-3.533-.402-5.143-1.208l-55.69-27.84a4.465 4.465 0 0 1-2.488-4.031c0-1.702.951-3.241 2.481-4.016 4.028-2.008 8.836-4.422 8.836-4.422l1.346 2.681s-4.812 2.416-8.836 4.421c-.507.257-.828.77-.828 1.336 0 .579.316 1.094.824 1.346l55.696 27.842a8.533 8.533 0 0 0 7.603 0l11.492-5.744c14.403-7.198 34.744-17.365 44.264-22.129.51-.254.826-.764.828-1.332a1.516 1.516 0 0 0-.826-1.356 8214.525 8214.525 0 0 0-8.426-4.309l1.363-2.671s4.576 2.336 8.442 4.317c1.524.798 2.457 2.341 2.447 4.034a4.471 4.471 0 0 1-2.488 4c-9.519 4.764-29.86 14.931-44.263 22.129l-11.492 5.744a11.504 11.504 0 0 1-5.142 1.208z"/><path d="M107.777 158.133c-1.989 0-3.977-.453-5.791-1.36L58.73 135.144a6.11 6.11 0 0 1-3.294-4.537 1.438 1.438 0 0 1-.095-.513v-13.919a1.5 1.5 0 1 1 2.999 0v13.559c.02.076.033.155.04.235a3.087 3.087 0 0 0 1.689 2.492l43.259 21.63a9.993 9.993 0 0 0 8.897 0l43.834-21.916a3.086 3.086 0 0 0 1.668-2.302l.005-.029a3.195 3.195 0 0 0-.002-.859 1.455 1.455 0 0 1-.015-.208v-12.602a1.5 1.5 0 0 1 3 0v12.504a6.165 6.165 0 0 1-.024 1.656 6.089 6.089 0 0 1-3.291 4.522l-43.833 21.916a12.945 12.945 0 0 1-5.79 1.36z"/><path d="M107.704 91.515a8.518 8.518 0 0 0-3.787.883l-44.038 21.908a2.485 2.485 0 0 0-1.385 2.237c0 .956.53 1.813 1.385 2.238v.001l44.051 21.912a8.534 8.534 0 0 0 7.569.001l44.63-22.201a2.485 2.485 0 0 0 1.386-2.251 2.517 2.517 0 0 0-1.41-2.236l-44.697-21.648a8.5 8.5 0 0 0-3.704-.844zm.011 53.065c-1.76 0-3.519-.399-5.122-1.198L58.542 121.47a5.471 5.471 0 0 1-3.05-4.927 5.47 5.47 0 0 1 3.05-4.924L102.58 89.71a11.58 11.58 0 0 1 10.137-.053l44.696 21.648a5.538 5.538 0 0 1 3.104 4.921 5.464 5.464 0 0 1-3.051 4.955l-44.629 22.201a11.493 11.493 0 0 1-5.122 1.198zm35.074-79.39a1.5 1.5 0 0 1-1.5-1.5V27.692a1.5 1.5 0 0 1 3 0V63.69a1.5 1.5 0 0 1-1.5 1.5z"/><path d="M193.633 92.883c-1.989 0-3.979-.453-5.792-1.36l-43.256-21.629a6.043 6.043 0 0 1-3.36-5.437c0-.342.029-.684.086-1.019a1.502 1.502 0 0 1 1.731-1.225 1.498 1.498 0 0 1 1.225 1.731 3.063 3.063 0 0 0 1.658 3.268l43.258 21.629a9.995 9.995 0 0 0 8.898 0l43.832-21.916a3.096 3.096 0 0 0 1.677-3.162 1.452 1.452 0 0 1-.012-.186V27.693a1.5 1.5 0 1 1 3 0v35.796a6.113 6.113 0 0 1-3.323 6.118l-43.832 21.916a12.958 12.958 0 0 1-5.79 1.36z"/><path d="M145.744 29.921l44.185 21.568a8.447 8.447 0 0 0 7.457 0l44.764-21.85a2.513 2.513 0 0 0 1.404-2.26 2.515 2.515 0 0 0-1.428-2.247L197.292 3.827a8.463 8.463 0 0 0-7.378.038l-44.17 21.561a2.514 2.514 0 0 0-1.405 2.247c0 .964.538 1.825 1.405 2.248zm47.913 25.435c-1.72 0-3.44-.391-5.042-1.173l-44.186-21.568a5.534 5.534 0 0 1-3.088-4.942 5.532 5.532 0 0 1 3.089-4.941L188.6 1.171a11.448 11.448 0 0 1 9.979-.052l44.834 21.305a5.532 5.532 0 0 1 3.139 4.939 5.53 5.53 0 0 1-3.088 4.971l-44.763 21.849a11.489 11.489 0 0 1-5.044 1.173zm52.495 115.826h.01-.01zm-52.328 28.37a12.928 12.928 0 0 1-5.79-1.36c-4.673-2.336-12.401-6.191-20.494-10.229-8.925-4.453-18.296-9.129-24.511-12.236a6.047 6.047 0 0 1-3.361-5.437c0-.257.139-4.919.182-6.342a1.5 1.5 0 0 1 2.998.09s-.177 5.906-.181 6.257c0 1.169.653 2.224 1.704 2.75 6.214 3.107 15.584 7.782 24.508 12.234 8.094 4.038 15.822 7.894 20.497 10.231a9.988 9.988 0 0 0 8.896 0l44.933-22.465c.754-.377 1.245-1.104 1.459-2.161l.008-.037.004-.032c.034-.182.05-.371.049-.564-.002-.255-.02-6.481-.02-6.481l3-.008s.016 6.202.02 6.467c.001.371-.029.73-.09 1.078a1.248 1.248 0 0 1-.035.172l.003.001c-.395 1.951-1.481 3.459-3.056 4.247l-44.933 22.465a12.951 12.951 0 0 1-5.79 1.36z"/><path d="M193.386 137.919a8.503 8.503 0 0 0-3.803.892l-45.508 22.753a2.352 2.352 0 0 0-1.306 2.107 2.35 2.35 0 0 0 1.293 2.115l.001.001 45.472 23.089a8.538 8.538 0 0 0 7.652.023l46.203-23.103a2.352 2.352 0 0 0 1.31-2.125 2.38 2.38 0 0 0-1.321-2.116l-46.24-22.768a8.506 8.506 0 0 0-3.753-.868zm0 54.871c-1.79 0-3.579-.414-5.208-1.241l-45.473-23.088h.001a5.332 5.332 0 0 1-2.936-4.798 5.339 5.339 0 0 1 2.965-4.782l45.506-22.753a11.572 11.572 0 0 1 10.222-.032l46.24 22.768a5.331 5.331 0 0 1 2.996 4.799 5.337 5.337 0 0 1-2.967 4.816l-46.204 23.103a11.513 11.513 0 0 1-5.142 1.208zm138.766-64.608h.01-.01zm-52.328 28.37a12.928 12.928 0 0 1-5.79-1.36c-4.673-2.336-12.401-6.191-20.494-10.229-8.925-4.453-18.296-9.129-24.511-12.236a6.047 6.047 0 0 1-3.361-5.437c0-.259.163-11.086.181-12.319a1.499 1.499 0 0 1 1.499-1.477h.023a1.498 1.498 0 0 1 1.476 1.521s-.178 11.922-.179 12.277c0 1.172.652 2.227 1.703 2.753 6.214 3.107 15.584 7.782 24.508 12.234 8.094 4.038 15.822 7.894 20.497 10.231a9.988 9.988 0 0 0 8.896 0l44.933-22.465c.754-.377 1.245-1.104 1.459-2.161l.008-.037.004-.032c.034-.182.05-.371.049-.564-.002-.255-.02-12.484-.02-12.484l3-.004s.016 12.154.02 12.467c.001.37-.029.729-.09 1.077a1.248 1.248 0 0 1-.035.172l.003.001c-.395 1.951-1.481 3.459-3.056 4.247l-44.933 22.465a12.951 12.951 0 0 1-5.79 1.36z"/><path d="M230.062 116.787l45.473 23.088a8.534 8.534 0 0 0 7.65.024l46.204-23.103a2.351 2.351 0 0 0 1.311-2.124 2.382 2.382 0 0 0-1.322-2.116l-46.24-22.769a8.552 8.552 0 0 0-7.556.023l-45.506 22.753a2.355 2.355 0 0 0-1.309 2.11 2.355 2.355 0 0 0 1.295 2.114zm49.323 27.003c-1.79 0-3.579-.414-5.208-1.241l-45.472-23.088a5.337 5.337 0 0 1-2.936-4.798 5.34 5.34 0 0 1 2.966-4.783l45.506-22.752a11.566 11.566 0 0 1 10.221-.031l46.241 22.768a5.33 5.33 0 0 1 2.995 4.798 5.333 5.333 0 0 1-2.967 4.815l-46.204 23.103a11.498 11.498 0 0 1-5.142 1.209z"/></g></svg>