<svg xmlns="http://www.w3.org/2000/svg" style="isolation:isolate" width="386" height="436"><defs><clipPath id="a"><path d="M0 0h386v436H0z"/></clipPath></defs><g clip-path="url(#a)"><path d="M125.85 272.899h258.463v64.949a4.587 4.587 0 0 1-2.496 4.654L198.54 434.14a11.446 11.446 0 0 1-10.24 0L5.025 342.502a4.577 4.577 0 0 1-2.507-4.567v-65.036H125.85z" fill-rule="evenodd" fill="#4A31CF"/><path d="M254.517 374.914v3.446l-30.743 15.374v-3.446l30.743-15.374zm38.921-19.46v3.446l-30.743 15.373v-3.445l30.743-15.374z" fill-rule="evenodd" fill="#B9ADFF" fill-opacity=".65"/><linearGradient id="b" x1=".5" y1="-.01" x2=".5" y2=".53" gradientTransform="matrix(381.353 0 0 194.234 2.743 175.761)" gradientUnits="userSpaceOnUse"><stop offset="0%" stop-color="#3f24cf"/><stop offset="100%" stop-color="#10054a"/></linearGradient><path d="M5.386 277.154a4.78 4.78 0 1 1 0-8.552c33.92-16.965 158.352-79.17 183.562-91.785a9.997 9.997 0 0 1 8.944 0c25.209 12.615 149.642 74.82 183.561 91.785a4.783 4.783 0 0 1 0 8.552c-33.919 16.965-158.352 79.181-183.561 91.785a9.997 9.997 0 0 1-8.944 0c-25.21-12.604-149.642-74.82-183.562-91.785z" fill-rule="evenodd" fill="url(#b)"/><path d="M181.244 377.572a8.377 8.377 0 0 0-4.634-7.494c-24.729-12.368-140.992-70.512-164.985-82.514a3.005 3.005 0 0 0-2.919.131 3 3 0 0 0-1.42 2.551v41.051a8.374 8.374 0 0 0 4.599 7.477c24.677 12.485 141.209 71.437 165.08 83.511a2.951 2.951 0 0 0 2.875-.119 2.96 2.96 0 0 0 1.404-2.51v-42.084z" fill-rule="evenodd" fill="#1E0C7F"/><path d="M13.142 300.506v3.446l30.743 15.374v-3.446l-30.743-15.374zm78.987 40.066v3.446l30.743 15.374v-3.446l-30.743-15.374zm-78.987-28.618v3.445l30.743 15.374v-3.445l-30.743-15.374zm78.987 40.066v3.445l30.743 15.374v-3.445L92.129 352.02zm-78.987-28.619v3.446l30.743 15.374v-3.446l-30.743-15.374zm78.987 40.066v3.446l30.743 15.374v-3.446l-30.743-15.374zm-38.921-42.355v3.445l30.743 15.374v-3.445l-30.743-15.374zm78.987 40.066v3.445l30.743 15.374v-3.446l-30.743-15.373zm-78.987-28.619v3.446l30.743 15.374v-3.446l-30.743-15.374zm78.987 40.066v3.446l30.743 15.374v-3.446l-30.743-15.374zm-78.987-28.619v3.446l30.743 15.374v-3.446l-30.743-15.374zm78.987 40.066v3.446l30.743 15.374v-3.446l-30.743-15.374z" fill-rule="evenodd" fill="#9280FD" fill-opacity=".26"/><ellipse vector-effect="non-scaling-stroke" cx="170.45" cy="382.66" rx="1.66" ry="2.49" fill="#67E4CF"/><ellipse vector-effect="non-scaling-stroke" cx="170.45" cy="394.11" rx="1.66" ry="2.49" fill="#67E4CF"/><ellipse vector-effect="non-scaling-stroke" cx="170.45" cy="405.55" rx="1.66" ry="2.49" fill="#67E4CF"/><path d="M125.85 202.925h258.463v63.949a4.587 4.587 0 0 1-2.496 4.654L198.54 363.166a11.446 11.446 0 0 1-10.24 0L5.025 271.528a4.577 4.577 0 0 1-2.507-4.567v-64.036H125.85z" fill-rule="evenodd" fill="#4A31CF"/><path d="M254.517 303.941v3.445l-30.743 15.374v-3.446l30.743-15.373zm38.921-19.461v3.446L262.695 303.3v-3.446l30.743-15.374z" fill-rule="evenodd" fill="#B9ADFF" fill-opacity=".65"/><linearGradient id="c" x1=".5" y1="-.01" x2=".5" y2=".53" gradientTransform="matrix(381.21 0 0 194.234 2.815 105.787)" gradientUnits="userSpaceOnUse"><stop offset="0%" stop-color="#3f24cf"/><stop offset="100%" stop-color="#10054a"/></linearGradient><path d="M5.489 207.237a4.849 4.849 0 0 1 0-8.666l183.459-91.728a9.997 9.997 0 0 1 8.944 0l183.458 91.728a4.846 4.846 0 0 1 0 8.666l-183.458 91.728a9.997 9.997 0 0 1-8.944 0L5.489 207.237z" fill-rule="evenodd" fill="url(#c)"/><path d="M181.244 307.571a8.377 8.377 0 0 0-4.634-7.494c-24.729-12.368-140.992-70.512-164.985-82.514a3.005 3.005 0 0 0-2.919.131 3 3 0 0 0-1.42 2.551v41.051a8.374 8.374 0 0 0 4.599 7.477c24.677 12.485 141.209 71.437 165.08 83.511a2.951 2.951 0 0 0 2.875-.119 2.96 2.96 0 0 0 1.404-2.51v-42.084z" fill-rule="evenodd" fill="#1E0C7F"/><path d="M13.142 229.532v3.446l30.743 15.374v-3.446l-30.743-15.374zm78.987 40.066v3.446l30.743 15.374v-3.446l-30.743-15.374zM13.142 240.98v3.446l30.743 15.373v-3.445L13.142 240.98zm78.987 40.066v3.445l30.743 15.374v-3.445l-30.743-15.374zm-78.987-28.619v3.446l30.743 15.374v-3.446l-30.743-15.374zm78.987 40.066v3.446l30.743 15.374v-3.446l-30.743-15.374zm-38.921-42.355v3.445l30.743 15.374v-3.445l-30.743-15.374zm78.987 40.066v3.445l30.743 15.374v-3.445l-30.743-15.374zm-78.987-28.619v3.446l30.743 15.374v-3.446l-30.743-15.374zm78.987 40.066v3.446l30.743 15.374v-3.446l-30.743-15.374zm-78.987-28.618v3.445l30.743 15.374v-3.446l-30.743-15.373zm78.987 40.066v3.445l30.743 15.374v-3.446l-30.743-15.373z" fill-rule="evenodd" fill="#9280FD" fill-opacity=".26"/><ellipse vector-effect="non-scaling-stroke" cx="170.45" cy="311.69" rx="1.66" ry="2.49" fill="#67E4CF"/><ellipse vector-effect="non-scaling-stroke" cx="170.45" cy="323.13" rx="1.66" ry="2.49" fill="#67E4CF"/><ellipse vector-effect="non-scaling-stroke" cx="170.45" cy="334.58" rx="1.66" ry="2.49" fill="#67E4CF"/><path d="M125.85 130.951h258.463V195.9a4.589 4.589 0 0 1-2.496 4.655 10801908.2 10801908.2 0 0 0-183.277 91.637 11.446 11.446 0 0 1-10.24 0A30219399.5 30219399.5 0 0 1 5.025 200.555a4.579 4.579 0 0 1-2.507-4.568v-65.036H125.85z" fill-rule="evenodd" fill="#4A31CF"/><path d="M253.07 233.688c.311-.149.678-.137.973.046a.997.997 0 0 1 .474.847v.595c0 .756-.428 1.442-1.106 1.786-4.684 2.347-22.901 11.447-28.19 14.092-.31.16-.678.137-.973-.035a1.02 1.02 0 0 1-.474-.858v-.584c0-.767.428-1.454 1.106-1.797 4.684-2.336 22.902-11.448 28.19-14.092zm40.368-20.182v3.446l-30.743 15.374v-3.446l30.743-15.374z" fill-rule="evenodd" fill="#B9ADFF" fill-opacity=".65"/><path d="M5.493 135.263a4.846 4.846 0 0 1 0-8.666c34.072-17.033 158.272-79.135 183.455-91.728a9.997 9.997 0 0 1 8.944 0c25.184 12.593 149.384 74.695 183.456 91.728a4.847 4.847 0 0 1 0 8.666c-34.072 17.034-158.272 79.136-183.456 91.728a9.997 9.997 0 0 1-8.944 0c-25.183-12.592-149.383-74.694-183.455-91.728z" fill-rule="evenodd" fill="#AD9EFF"/><path d="M181.244 236.575a8.377 8.377 0 0 0-4.634-7.494c-24.729-12.368-140.992-70.512-164.985-82.514a3.005 3.005 0 0 0-2.919.131 3 3 0 0 0-1.42 2.551V190.3a8.374 8.374 0 0 0 4.599 7.477c24.677 12.485 141.209 71.437 165.08 83.511a2.951 2.951 0 0 0 2.875-.119 2.96 2.96 0 0 0 1.404-2.51v-42.084z" fill-rule="evenodd" fill="#1E0C7F"/><path d="M13.142 158.559v3.445l30.743 15.374v-3.446l-30.743-15.373zm78.987 40.066v3.445l30.743 15.374v-3.446l-30.743-15.373zm-78.987-28.619v3.446l30.743 15.374v-3.446l-30.743-15.374zm78.987 40.066v3.446l30.743 15.373v-3.445l-30.743-15.374zm-78.987-28.619v3.446l30.743 15.374v-3.446l-30.743-15.374zm78.987 40.066v3.446l30.743 15.374v-3.446l-30.743-15.374zm-38.921-42.355v3.446l30.743 15.373v-3.445l-30.743-15.374zm78.987 40.066v3.445l30.743 15.374v-3.445l-30.743-15.374zm-78.987-28.619v3.446l30.743 15.374v-3.446l-30.743-15.374zm78.987 40.066v3.446l30.743 15.374v-3.446l-30.743-15.374zm-78.987-28.618v3.445l30.743 15.374v-3.445l-30.743-15.374zm78.987 40.066v3.445l30.743 15.374v-3.446l-30.743-15.373z" fill-rule="evenodd" fill="#9280FD" fill-opacity=".26"/><ellipse vector-effect="non-scaling-stroke" cx="170.45" cy="240.71" rx="1.66" ry="2.49" fill="#67E4CF"/><ellipse vector-effect="non-scaling-stroke" cx="170.45" cy="252.16" rx="1.66" ry="2.49" fill="#67E4CF"/><ellipse vector-effect="non-scaling-stroke" cx="170.45" cy="263.61" rx="1.66" ry="2.49" fill="#67E4CF"/><path d="M47.474 127.071a3.007 3.007 0 0 0-1.659 2.68c0 1.146.643 2.177 1.659 2.692 12.63 6.312 44.049 22.017 55.734 27.871a10.068 10.068 0 0 0 8.944 0c11.687-5.854 43.105-21.559 55.736-27.871a3.006 3.006 0 1 0 0-5.372c-12.631-6.312-44.049-22.017-55.736-27.859a9.99 9.99 0 0 0-8.944 0c-11.685 5.842-43.104 21.547-55.734 27.859zm171.828 0a3.007 3.007 0 0 0-1.659 2.68c0 1.146.643 2.177 1.659 2.692a96028.371 96028.371 0 0 1 55.734 27.871 10.068 10.068 0 0 0 8.944 0c11.687-5.854 43.105-21.559 55.736-27.871a3.006 3.006 0 1 0 0-5.372c-12.631-6.312-44.049-22.017-55.736-27.859a9.99 9.99 0 0 0-8.944 0c-11.685 5.842-43.103 21.547-55.734 27.859zm-85.914 42.384a3.01 3.01 0 0 0-1.659 2.681c0 1.145.643 2.176 1.659 2.692 12.631 6.312 44.049 22.017 55.734 27.87a10.063 10.063 0 0 0 8.945 0c11.686-5.853 43.104-21.558 55.735-27.87a3.013 3.013 0 0 0 1.659-2.692 3.01 3.01 0 0 0-1.659-2.681c-12.631-6.311-44.049-22.016-55.735-27.859a9.993 9.993 0 0 0-8.945 0c-11.685 5.843-43.103 21.548-55.734 27.859z" fill-rule="evenodd" fill="#4A31CF"/><path d="M133.388 83.541a3.01 3.01 0 0 0-1.659 2.681c0 1.146.643 2.176 1.659 2.692 12.631 6.312 44.049 22.017 55.734 27.87a10.063 10.063 0 0 0 8.945 0c11.686-5.853 43.104-21.558 55.735-27.87a3.012 3.012 0 0 0 1.659-2.692 3.01 3.01 0 0 0-1.659-2.681c-12.631-6.311-44.049-22.016-55.735-27.859a9.993 9.993 0 0 0-8.945 0c-11.685 5.843-43.103 21.548-55.734 27.859z" fill-rule="evenodd" fill="#251386"/><path d="M56.709 116.676h102.444v12.61a4.52 4.52 0 0 1 0 1.288v.03h-.004a4.583 4.583 0 0 1-2.483 3.424l-43.863 21.931a11.45 11.45 0 0 1-10.245 0c-9.835-4.916-31.429-15.714-43.287-21.643a4.578 4.578 0 0 1-2.517-3.712h-.045v-13.928z" fill-rule="evenodd" fill="#CBA028"/><path d="M59.042 120.209a4 4 0 0 1 0-7.157l44.15-22.047a10.001 10.001 0 0 1 8.84-.047l44.811 21.785a4.002 4.002 0 0 1 .039 7.176l-44.743 22.343a10.001 10.001 0 0 1-8.934 0l-44.163-22.053z" fill-rule="evenodd" fill="#F5CD5C"/><path d="M142.718 64.156V28.133h102.358v35.908a4.579 4.579 0 0 1-2.495 4.692l-43.862 21.931a11.454 11.454 0 0 1-10.247 0l-43.287-21.643a4.582 4.582 0 0 1-2.467-4.865z" fill-rule="evenodd" fill="#1787D7"/><path d="M144.971 31.695a4 4 0 0 1 0-7.139l44.093-22.304a10 10 0 0 1 8.932-.048l44.752 22.04a3.998 3.998 0 0 1 .038 7.157l-44.683 22.604a10.007 10.007 0 0 1-9.029 0l-44.103-22.31z" fill-rule="evenodd" fill="#34AAFF"/><path d="M230.058 130.65a4.003 4.003 0 0 1 0-7.156c11.857-5.929 35.235-17.617 44.966-22.484a10.007 10.007 0 0 1 8.849-.047l45.639 22.217a3.998 3.998 0 0 1 2.248 3.575 3.998 3.998 0 0 1-2.21 3.599l-45.569 22.784a9.997 9.997 0 0 1-8.944 0l-44.979-22.488z" fill-rule="evenodd" fill="#DE6E32"/><path fill="#DE6E32" d="M227.89 115.62h103.85v11.47H227.89z"/><path d="M230.058 119.194a4.001 4.001 0 0 1 0-7.156l44.966-22.483a10.004 10.004 0 0 1 8.849-.047c9.841 4.791 33.581 16.348 45.639 22.216a4 4 0 0 1 .038 7.175l-45.569 22.784a9.997 9.997 0 0 1-8.944 0l-44.979-22.489z" fill-rule="evenodd" fill="#FC813F"/><g fill-rule="evenodd"><path d="M157.913 162.207h86.959v9.293a4.505 4.505 0 0 1 0 1.627v.098h-.018a4.582 4.582 0 0 1-2.432 3.187l-43.711 21.931a11.376 11.376 0 0 1-10.21 0c-9.801-4.916-31.32-15.714-43.137-21.643a4.582 4.582 0 0 1-2.462-4.854v-9.639h15.011z" fill="#B32A85"/><path d="M145.041 165.751a4.001 4.001 0 0 1 0-7.151 841072.05 841072.05 0 0 0 44.051-22.102 10.001 10.001 0 0 1 8.875-.048l44.71 21.84a4.001 4.001 0 0 1 .038 7.17l-44.641 22.398a10 10 0 0 1-8.969 0l-44.064-22.107z" fill="#E338AA"/></g></g></svg>