<?xml version="1.0" encoding="utf-8"?>
<!-- Generator: Adobe Illustrator 24.0.3, SVG Export Plug-In . SVG Version: 6.00 Build 0)  -->
<svg version="1.1" id="Слой_1" xmlns="http://www.w3.org/2000/svg" xmlns:xlink="http://www.w3.org/1999/xlink" x="0px" y="0px"
	 viewBox="0 0 248 386" style="enable-background:new 0 0 248 386;" xml:space="preserve">
<style type="text/css">
	.st0{clip-path:url(#SVGID_2_);}
	.st1{fill:#5540CC;}
</style>
<g>
	<defs>
		<rect id="SVGID_1_" x="-69" y="-25" width="386" height="436"/>
	</defs>
	<clipPath id="SVGID_2_">
		<use xlink:href="#SVGID_1_"  style="overflow:visible;"/>
	</clipPath>
	<g class="st0">
		<path class="st1" d="M124,378.7c-64.2,0-116.5-29.2-116.5-65.2v-1.2v-59.1c0-0.8,0.7-1.5,1.5-1.5s1.5,0.7,1.5,1.5v60.3
			c0,34.3,50.9,62.2,113.5,62.2c25.6,0,49.8-4.6,69.9-13.3c27.7-11.9,43.6-29.8,43.6-48.9v-1.4V256c0-0.8,0.7-1.5,1.5-1.5
			s1.5,0.7,1.5,1.5v57.4c0,20.4-16.5,39.2-45.4,51.7C174.6,374.1,150,378.7,124,378.7z"/>
		<path class="st1" d="M123.6,326.8c-3.5,0-6.3,2.8-6.3,6.3v27.3c0,3.5,2.8,6.3,6.3,6.3s6.3-2.8,6.3-6.3v-27.3
			C129.9,329.6,127.1,326.8,123.6,326.8z M123.6,369.7c-5.1,0-9.3-4.2-9.3-9.3v-27.3c0-5.1,4.2-9.3,9.3-9.3s9.3,4.2,9.3,9.3v27.3
			C132.9,365.5,128.7,369.7,123.6,369.7z M124,318.4c-64.2,0-116.5-29.2-116.5-65.2c0-0.8,0.7-1.5,1.5-1.5s1.5,0.7,1.5,1.5
			c0,34.3,50.9,62.2,113.5,62.2s113.5-27.9,113.5-62.2c0-0.8,0.7-1.5,1.5-1.5s1.5,0.7,1.5,1.5C240.5,289.2,188.2,318.4,124,318.4z"
			/>
		<path class="st1" d="M124,314.7c-64.2,0-116.5-29.2-116.5-65.2v-1.2v-59.1c0-0.8,0.7-1.5,1.5-1.5s1.5,0.7,1.5,1.5v60.3
			c0,34.3,50.9,62.2,113.5,62.2c25.6,0,49.8-4.6,69.9-13.3c27.7-11.9,43.6-29.8,43.6-48.9v-1.4V192c0-0.8,0.7-1.5,1.5-1.5
			s1.5,0.7,1.5,1.5v57.4c0,20.4-16.5,39.2-45.4,51.7C174.6,310.1,150,314.7,124,314.7z"/>
		<path class="st1" d="M123.6,263.8c-3.5,0-6.3,2.8-6.3,6.3v27.3c0,3.5,2.8,6.3,6.3,6.3s6.3-2.8,6.3-6.3v-27.3
			C129.9,266.6,127.1,263.8,123.6,263.8z M123.6,306.7c-5.1,0-9.3-4.2-9.3-9.3v-27.3c0-5.1,4.2-9.3,9.3-9.3s9.3,4.2,9.3,9.3v27.3
			C132.9,302.5,128.7,306.7,123.6,306.7z M124,254.4c-64.2,0-116.5-29.2-116.5-65.2c0-0.8,0.7-1.5,1.5-1.5s1.5,0.7,1.5,1.5
			c0,34.3,50.9,62.2,113.5,62.2s113.5-27.9,113.5-62.2c0-0.8,0.7-1.5,1.5-1.5s1.5,0.7,1.5,1.5C240.5,225.2,188.2,254.4,124,254.4z"
			/>
		<path class="st1" d="M124,250.7c-64.2,0-116.5-29.2-116.5-65.2v-1.2v-57.8c0-0.8,0.7-1.5,1.5-1.5s1.5,0.7,1.5,1.5v59
			c0,34.3,50.9,62.2,113.5,62.2s113.5-27.9,113.5-62.2v-1.4V128c0-0.8,0.7-1.5,1.5-1.5s1.5,0.7,1.5,1.5v57.4
			C240.5,221.5,188.2,250.7,124,250.7z"/>
		<path class="st1" d="M123.6,201.8c-3.5,0-6.3,2.8-6.3,6.3v27.3c0,3.5,2.8,6.3,6.3,6.3s6.3-2.8,6.3-6.3v-27.3
			C129.9,204.6,127.1,201.8,123.6,201.8z M123.6,244.7c-5.1,0-9.3-4.2-9.3-9.3v-27.3c0-5.1,4.2-9.3,9.3-9.3s9.3,4.2,9.3,9.3v27.3
			C132.9,240.5,128.7,244.7,123.6,244.7z M124,191.7c-64.2,0-116.5-29.2-116.5-65.2c0-14.5,8.3-28.2,23.9-39.6
			C46.3,76,67.5,67.9,90.9,64c0.8-0.1,1.6,0.5,1.7,1.3c0.1,0.8-0.4,1.5-1.2,1.7c-47.6,7.9-80.9,32.4-80.9,59.6
			c0,34.3,50.9,62.2,113.5,62.2s113.5-27.9,113.5-62.2c0-13.3-7.7-26.1-22.2-36.9C201,79.1,180.7,71.1,158,67.2
			c-0.8-0.2-1.3-1-1.2-1.8c0.2-0.8,0.9-1.3,1.7-1.2c49,8.5,82,33.5,82,62.3C240.5,162.5,188.2,191.7,124,191.7L124,191.7z"/>
		<circle vector-effect="non-scaling-stroke" class="st1" cx="123.5" cy="210.7" r="3.3"/>
		<circle vector-effect="non-scaling-stroke" class="st1" cx="123.5" cy="272.7" r="3.3"/>
		<circle vector-effect="non-scaling-stroke" class="st1" cx="123.5" cy="335.7" r="3.3"/>
		<circle vector-effect="non-scaling-stroke" class="st1" cx="123.5" cy="222.7" r="3.3"/>
		<circle vector-effect="non-scaling-stroke" class="st1" cx="123.5" cy="284.7" r="3.3"/>
		<circle vector-effect="non-scaling-stroke" class="st1" cx="123.5" cy="347.7" r="3.3"/>
		<circle vector-effect="non-scaling-stroke" class="st1" cx="123.5" cy="234.7" r="3.3"/>
		<circle vector-effect="non-scaling-stroke" class="st1" cx="123.5" cy="296.7" r="3.3"/>
		<circle vector-effect="non-scaling-stroke" class="st1" cx="123.5" cy="359.7" r="3.3"/>
		<path class="st1" d="M124,95.4c-32.2,0-58.5,14.2-58.5,31.7s26.2,31.7,58.5,31.7c32.2,0,58.5-14.2,58.5-31.7S156.2,95.4,124,95.4z
			 M124,161.8c-33.9,0-61.5-15.6-61.5-34.7S90.1,92.4,124,92.4s61.5,15.6,61.5,34.7S157.9,161.8,124,161.8z M124.7,76.3
			c-23.3,0-42.2-10.8-42.2-24.1v-0.4V31.9c0-0.8,0.7-1.5,1.5-1.5s1.5,0.7,1.5,1.5v20.3c0,11.6,17.6,21.1,39.2,21.1
			s39.2-9.4,39.2-21.1v-0.5V31.9c0-0.8,0.7-1.5,1.5-1.5s1.5,0.7,1.5,1.5v20.3C166.9,65.5,148,76.3,124.7,76.3z"/>
		<path class="st1" d="M124.7,10.3c-21.6,0-39.2,9.4-39.2,21.1c0,11.6,17.6,21.1,39.2,21.1s39.2-9.4,39.2-21.1
			S146.3,10.3,124.7,10.3z M124.7,55.4c-23.3,0-42.2-10.8-42.2-24c0-13.3,18.9-24,42.2-24s42.2,10.8,42.2,24S148,55.4,124.7,55.4z"
			/>
		<path class="st1" d="M122.3,25.2c0.3,0.1,0.2,0.4-0.1,0.5L109,32.3c-0.3,0.2-0.8,0.2-1,0l-3.6-1.8c-0.3-0.1-0.2-0.4,0.1-0.5
			l13.1-6.6c0.3-0.2,0.8-0.2,1,0C118.7,23.4,122.3,25.2,122.3,25.2z M134.2,26.8c0.3,0.1,0.2,0.4-0.1,0.5L116.7,36
			c-0.3,0.2-0.8,0.2-1,0l-3.6-1.8c-0.3-0.1-0.2-0.4,0.1-0.5l17.4-8.7c0.3-0.2,0.8-0.2,1,0C130.6,25,134.2,26.8,134.2,26.8z
			 M147.6,27.8c0.3,0.1,0.2,0.4-0.1,0.5l-23.2,11.6c-0.3,0.2-0.8,0.2-1,0l-3.6-1.8c-0.3-0.1-0.2-0.4,0.1-0.5L143,26
			c0.3-0.2,0.8-0.2,1,0L147.6,27.8L147.6,27.8z"/>
	</g>
</g>
</svg>
