<svg xmlns="http://www.w3.org/2000/svg" style="isolation:isolate" width="386" height="436"><defs><clipPath id="a"><path d="M0 0h386v436H0z"/></clipPath></defs><g clip-path="url(#a)"><path d="M128.3 262.209h129.865l117.628.108v6.378a8.316 8.316 0 0 1-4.609 7.437A8848430.18 8848430.18 0 0 0 212.799 354.8a44.978 44.978 0 0 1-40.036-.01c-42.009-20.892-137.261-68.264-158.66-78.905a7.795 7.795 0 0 1-4.321-6.977v-6.699H128.3z" fill-rule="evenodd" fill="#057700"/><path d="M16.331 273.06a12.029 12.029 0 0 1-6.642-10.754c0-4.541 2.571-8.702 6.642-10.742 37.999-18.995 116.623-58.311 154.76-77.376a48.51 48.51 0 0 1 43.372 0c38.137 19.065 116.762 58.381 154.761 77.376a12.026 12.026 0 0 1 6.642 10.742 12.03 12.03 0 0 1-6.642 10.754c-37.999 18.995-116.624 58.311-154.761 77.376a48.433 48.433 0 0 1-43.372 0c-38.137-19.065-116.761-58.381-154.76-77.376z" fill-rule="evenodd" fill="#38A103"/><linearGradient id="b" x1=".5" y1="1" x2=".5" y2="0" gradientTransform="matrix(366.177 0 0 186.491 9.689 169.071)" gradientUnits="userSpaceOnUse"><stop offset="0%" stop-color="#38a103"/><stop offset="100%" stop-color="#79d24c"/></linearGradient><path d="M16.331 273.06a12.029 12.029 0 0 1-6.642-10.754c0-4.541 2.571-8.702 6.642-10.742 37.999-18.995 116.623-58.311 154.76-77.376a48.51 48.51 0 0 1 43.372 0c38.137 19.065 116.762 58.381 154.761 77.376a12.026 12.026 0 0 1 6.642 10.742 12.03 12.03 0 0 1-6.642 10.754c-37.999 18.995-116.624 58.311-154.761 77.376a48.433 48.433 0 0 1-43.372 0c-38.137-19.065-116.761-58.381-154.76-77.376z" fill-rule="evenodd" fill="url(#b)"/><path d="M128.3 216.212h129.865l117.628.108v6.27a8.318 8.318 0 0 1-4.609 7.438 8071671.72 8071671.72 0 0 0-158.385 78.667 44.974 44.974 0 0 1-40.036-.01c-42.009-20.891-137.261-68.264-158.66-78.905a7.794 7.794 0 0 1-4.321-6.976v-6.592H128.3z" fill-rule="evenodd" fill="#1D1921"/><path d="M16.331 226.955a12.029 12.029 0 0 1-6.642-10.754c0-4.541 2.571-8.702 6.642-10.742 37.999-18.995 116.623-58.311 154.76-77.375a48.503 48.503 0 0 1 43.372 0c38.137 19.064 116.762 58.38 154.761 77.375a12.026 12.026 0 0 1 6.642 10.742 12.03 12.03 0 0 1-6.642 10.754c-37.999 18.996-116.624 58.311-154.761 77.376a48.433 48.433 0 0 1-43.372 0c-38.137-19.065-116.761-58.38-154.76-77.376z" fill-rule="evenodd" fill="#424245"/><linearGradient id="c" x1=".5" y1="1" x2=".5" y2=".01" gradientTransform="matrix(366.177 0 0 186.491 9.689 122.966)" gradientUnits="userSpaceOnUse"><stop offset="0%" stop-color="#242424"/><stop offset="100%" stop-color="#3f3f67"/></linearGradient><path d="M16.331 226.955a12.029 12.029 0 0 1-6.642-10.754c0-4.541 2.571-8.702 6.642-10.742 37.999-18.995 116.623-58.311 154.76-77.375a48.503 48.503 0 0 1 43.372 0c38.137 19.064 116.762 58.38 154.761 77.375a12.026 12.026 0 0 1 6.642 10.742 12.03 12.03 0 0 1-6.642 10.754c-37.999 18.996-116.624 58.311-154.761 77.376a48.433 48.433 0 0 1-43.372 0c-38.137-19.065-116.761-58.38-154.76-77.376z" fill-rule="evenodd" fill="url(#c)"/><path d="M128.3 170h129.865l117.628.107v6.378a8.318 8.318 0 0 1-4.609 7.438 8071671.72 8071671.72 0 0 0-158.385 78.667 44.974 44.974 0 0 1-40.036-.01c-42.009-20.891-137.261-68.264-158.66-78.905a7.793 7.793 0 0 1-4.321-6.976V170H128.3z" fill-rule="evenodd" fill="#BFB19E"/><path d="M16.331 180.851a12.03 12.03 0 0 1-6.642-10.754c0-4.542 2.571-8.703 6.642-10.743 37.999-18.995 116.623-58.311 154.76-77.375a48.503 48.503 0 0 1 43.372 0c38.137 19.064 116.762 58.38 154.761 77.375a12.026 12.026 0 0 1 6.642 10.743c0 4.553-2.572 8.713-6.642 10.754-37.999 18.995-116.624 58.311-154.761 77.375a48.433 48.433 0 0 1-43.372 0c-38.137-19.064-116.761-58.38-154.76-77.375z" fill-rule="evenodd" fill="#D7C8B7"/><path d="M164.782 163.939h55.949l51.119.324-.114 4.355a2.798 2.798 0 0 1-1.55 2.433l-6.028 3.006-65.834 33.298a12.251 12.251 0 0 1-11.074-.008l-60.319-30.616-11.567-5.785a2.916 2.916 0 0 1-1.611-2.587l-.031-4.42h51.06z" fill-rule="evenodd" fill="#32223C"/><path d="M115.335 166.874a2.92 2.92 0 1 1 0-5.221c15.23-7.619 59.357-29.68 73.226-36.619a9.468 9.468 0 0 1 8.448 0c13.869 6.939 57.997 29 73.226 36.619a2.922 2.922 0 0 1 1.616 2.604 2.929 2.929 0 0 1-1.616 2.617c-15.229 7.619-59.357 29.68-73.226 36.619a9.474 9.474 0 0 1-8.448 0c-13.869-6.939-57.996-29-73.226-36.619z" fill-rule="evenodd" fill="#453656"/><g opacity=".9"><clipPath id="d"><path d="M215.083 161.403l4.827 1.418-2.252 1.124-2.575-2.542zm-2.636-.174l5.382 5.482 1.804-.9-.999-.945 3.024-1.51 1.784.552 1.958-.978-10.51-2.922-2.443 1.221zm2.811 6.77l1.83-.915-7.941-4.209-1.832.913 7.943 4.211zm-20.648 2.134l4.768 4.099-7.757-2.606-1.976.985 10.032 3.168 2.636-1.318-5.835-5.261-1.868.933zm9.128-2.778l.786-.393c1.141-.569 2.508-.605 4.138.26 1.63.864 1.521 1.565.38 2.135l-.788.393-4.516-2.395zm-3.545-.01l7.943 4.21 2.966-1.481c1.581-.79 1.775-1.219 1.611-1.88-.114-.466-.972-1.184-2.19-1.829-1.117-.592-2.327-1.012-3.324-1.153-1.787-.249-2.981.123-4.438.851l-2.568 1.282zm-17.348 8.651l7.954 4.215 1.845-.922-6.039-3.2 1.431-.714a2.719 2.719 0 0 1 1.482-.284c.668.056 1.395.32 2.511.911l3.492 1.852 1.788-.893-4.394-2.33c-3.136-1.662-5.189-1.072-6.784-.276l-3.286 1.641zm14.403-7.18l1.83-.915 7.942 4.211-1.829.914-7.943-4.21zm-25.285-3.653s8.898 2.866 14.965.671l1.641.871c-7.988 3.136-19.592-.387-19.592-.387s-.898-5.116 3.795-7.988l1.546.82c-4.261 2.58-2.355 6.013-2.355 6.013zm11.698-1.06l1.505.797c-4.84 1.523-11.004-.61-11.004-.61s-.683-2.324 2.063-4.129l1.651.875c-1.914.703-1.308 2.361-1.308 2.361s3.933 1.335 7.093.706zm-13.738-7.283l16.321-8.149 21.123 11.197-16.321 8.149-2.477-1.312c.385-.15.761-.311 1.126-.493 3.777-1.885 8.075-6.466 7.998-9.45-.94-.066-4.172.321-5.161.311.176 3.188-.24 6.164-4.534 8.308-.345.172-.703.32-1.07.453l-1.762-.934a9.109 9.109 0 0 0 1.319-.526c4.614-2.304 2.441-8.016 2.441-8.016s-10.053-1.359-15.727 1.726c-.147.08-.287.163-.427.246l-2.849-1.51zm6.302 3.341l-1.907-1.011c.138-.083.28-.164.43-.245 4.092-2.211 11.532-1.142 11.532-1.142s2.12 4.228-1.114 5.842a5.967 5.967 0 0 1-1.505.498l-5.785-3.067c1.902-.697 3.133-.388 6.165.194l-.075-2.32s-4.218-.572-6.944.789a8.11 8.11 0 0 0-.797.462z" fill-rule="evenodd" fill="#FFF"/></clipPath><g clip-path="url(#d)"><path fill="#7E6D91" d="M237.04 182.555l-68.061 3.543-12.293-40.673 68.062-3.542z" opacity=".9"/></g></g><clipPath id="e"><path d="M-89.378 174.658l4.251 1.88-1.881 1.416-2.37-3.296zm-2.288-.257l4.964 7.109 1.507-1.135-.918-1.226 2.527-1.904 1.572.733 1.636-1.234-9.246-3.881-2.042 1.538zm2.816 8.732l1.529-1.153-7.101-5.503-1.529 1.151 7.101 5.505zm-17.713 2.493l4.352 5.323-6.85-3.441-1.649 1.243 8.846 4.19 2.202-1.661-5.342-6.831-1.559 1.177zm7.725-3.459l.656-.495c.955-.717 2.133-.748 3.59.383 1.457 1.13 1.403 2.03.451 2.748l-.659.495-4.038-3.131zm-3.064-.055l7.103 5.503 2.477-1.867c1.322-.995 1.465-1.543 1.285-2.395-.125-.6-.908-1.533-1.996-2.376-1-.774-2.069-1.328-2.936-1.521-1.559-.343-2.568.122-3.788 1.039l-2.145 1.617zm-14.49 10.904l7.112 5.511 1.54-1.162-5.398-4.184 1.195-.899c.395-.299.806-.412 1.264-.347.579.078 1.222.427 2.22 1.2l3.123 2.421 1.494-1.125-3.929-3.047c-2.804-2.173-4.544-1.44-5.877-.437l-2.744 2.069zm12.031-9.051l1.53-1.152 7.1 5.505-1.527 1.151-7.103-5.504zm-22.05-4.997s7.85 3.789 12.966 1.043l1.466 1.138c-6.721 3.932-16.945-.733-16.945-.733s-1.069-6.584 2.821-10.216l1.382 1.072c-3.532 3.263-1.69 7.696-1.69 7.696zm10.045-1.22l1.345 1.042c-4.095 1.898-9.54-.917-9.54-.917s-.723-2.994 1.546-5.279l1.476 1.144c-1.614.881-.995 3.018-.995 3.018s3.472 1.762 6.168.992zm-12.284-9.522l13.634-10.273 18.885 14.639-13.634 10.273-2.214-1.716c.325-.188.64-.39.946-.619 3.154-2.377 6.604-8.209 6.368-12.044-.814-.096-3.586.363-4.441.337.334 4.097.145 7.915-3.443 10.618a6.865 6.865 0 0 1-.896.57l-1.576-1.221a6.038 6.038 0 0 0 1.108-.661c3.855-2.905 1.651-10.267 1.651-10.267s-8.762-1.868-13.485 2.028a8.232 8.232 0 0 0-.356.31l-2.547-1.974zm5.635 4.368l-1.706-1.322c.115-.105.233-.208.357-.308 3.41-2.794 9.898-1.33 9.898-1.33s2.072 5.457-.629 7.493c-.389.294-.82.492-1.271.621l-5.173-4.01c1.603-.873 2.683-.46 5.336.324l-.198-2.982s-3.675-.786-5.952.929a6.503 6.503 0 0 0-.662.585z" fill-rule="evenodd" fill="#FFF"/></clipPath><g clip-path="url(#e)"><path fill="#7E6D91" fill-opacity=".9" d="M245.52 185.772l-78.452 4.084-14.17-46.884 78.451-4.084z"/></g></g></svg>