<svg xmlns="http://www.w3.org/2000/svg" style="isolation:isolate" width="386" height="436"><defs><clipPath id="a"><path d="M0 0h386v436H0z"/></clipPath></defs><g clip-path="url(#a)" fill="#5540CC"><path d="M193.002 361.138c-6.261 0-12.521-1.404-18.227-4.211L12.151 276.915c-2.854-1.404-4.628-4.239-4.628-7.399v-7.274h3v7.274c0 2.009 1.132 3.81 2.953 4.707L176.1 354.236c10.578 5.205 23.208 5.207 33.788.006l162.38-79.791c1.978-.971 3.208-2.928 3.208-5.106v-6.996h3v6.996c0 3.329-1.872 6.317-4.885 7.8L211.21 356.936c-5.7 2.801-11.954 4.202-18.208 4.202z"/><path d="M193 356.283c-6.693 0-13.385-1.525-19.485-4.578l-159.4-79.694a11.866 11.866 0 0 1-6.591-10.673 11.86 11.86 0 0 1 6.591-10.662l21.171-10.585a1.5 1.5 0 0 1 1.341 2.683l-21.17 10.585a8.876 8.876 0 0 0-4.933 7.979 8.881 8.881 0 0 0 4.933 7.989l159.399 79.694c11.362 5.684 24.927 5.686 36.289 0l159.399-79.694a8.88 8.88 0 0 0 4.933-7.989 8.878 8.878 0 0 0-4.933-7.979l-20.421-10.204a1.501 1.501 0 0 1-.671-2.013 1.504 1.504 0 0 1 2.013-.671l20.421 10.205a11.86 11.86 0 0 1 6.591 10.662c0 4.55-2.526 8.64-6.591 10.673l-159.4 79.694c-6.1 3.052-12.794 4.578-19.486 4.578z"/><path d="M193.002 315.285c-6.261 0-12.521-1.404-18.227-4.212L12.151 231.061c-2.854-1.404-4.628-4.239-4.628-7.398v-7.168h3v7.168c0 2.008 1.132 3.811 2.953 4.707L176.1 308.382c10.578 5.205 23.208 5.208 33.788.007l162.38-79.791c1.978-.971 3.208-2.928 3.208-5.106v-6.89h3v6.89c0 3.33-1.872 6.318-4.886 7.8l-162.38 79.791c-5.7 2.801-11.954 4.202-18.208 4.202z"/><path d="M193 310.43c-6.693 0-13.385-1.526-19.485-4.579-20.075-10.034-53.384-26.689-85.797-42.895l-73.603-36.797a11.872 11.872 0 0 1-6.591-10.675c0-4.543 2.526-8.628 6.591-10.66 4.454-2.227 8.649-4.405 12.35-6.326 2.956-1.535 5.748-2.985 8.112-4.167a1.501 1.501 0 0 1 1.341 2.684c-2.343 1.171-5.125 2.616-8.071 4.145-3.71 1.927-7.916 4.11-12.39 6.347a8.872 8.872 0 0 0-4.933 7.977 8.886 8.886 0 0 0 4.934 7.991l73.602 36.799c32.412 16.205 65.722 32.859 85.796 42.893 11.362 5.686 24.927 5.686 36.289 0l159.399-79.692a8.887 8.887 0 0 0 4.933-7.991 8.87 8.87 0 0 0-4.933-7.977l-20.353-10.172a1.5 1.5 0 0 1 1.342-2.683l20.353 10.172a11.854 11.854 0 0 1 6.591 10.66c0 4.55-2.526 8.64-6.591 10.675l-159.4 79.692c-6.1 3.052-12.794 4.578-19.486 4.579z"/><path d="M193.002 269.432c-6.261 0-12.521-1.404-18.227-4.212L12.151 185.208c-2.854-1.403-4.628-4.238-4.628-7.398v-7.275h3v7.275c0 2.008 1.132 3.811 2.953 4.706L176.1 262.529c10.578 5.206 23.208 5.208 33.788.007l162.38-79.79c1.978-.973 3.208-2.93 3.208-5.107v-6.998h3v6.998c0 3.329-1.872 6.317-4.885 7.799L211.21 265.23c-5.7 2.801-11.954 4.202-18.208 4.202z"/><path d="M193 77.53a40.713 40.713 0 0 0-18.217 4.282c-19.555 9.775-51.668 25.83-83.277 41.634l-76.123 38.059a9.037 9.037 0 0 0-5.023 8.125 9.043 9.043 0 0 0 5.023 8.137l159.399 79.695c11.408 5.707 25.028 5.707 36.436 0l159.4-79.695a9.043 9.043 0 0 0 5.023-8.137 9.038 9.038 0 0 0-5.024-8.125L211.219 81.812A40.724 40.724 0 0 0 193 77.53zm0 186.882c-6.668 0-13.334-1.52-19.412-4.561L14.189 180.156v.001-.001a11.7 11.7 0 0 1-6.5-10.526c0-4.48 2.491-8.509 6.5-10.514l76.123-38.058c31.608-15.804 63.722-31.861 83.277-41.636 12.153-6.08 26.667-6.082 38.824 0l159.399 79.694a11.694 11.694 0 0 1 6.5 10.514c0 4.488-2.491 8.522-6.5 10.526l-159.4 79.695c-6.076 3.04-12.745 4.56-19.412 4.561z"/><path d="M193.005 210.978c-1.896 0-3.791-.436-5.518-1.308l-61.055-30.805-11.762-5.848a4.01 4.01 0 0 1-2.242-3.598l-.018-6.586 3.01-.008.018 6.586c.001.387.219.737.57.911l11.771 5.853 61.064 30.809a9.28 9.28 0 0 0 8.311.006l66.575-33.471 6.234-3.09a.925.925 0 0 0 .515-.801c.043-1.776.119-4.547.119-4.547l3.008.083s-.077 2.765-.12 4.539a3.927 3.927 0 0 1-2.184 3.421l-6.229 3.087-66.566 33.467a12.254 12.254 0 0 1-5.501 1.3z"/><path d="M193.006 125.186a6.666 6.666 0 0 0-2.99.705l-74.03 37.016c-.35.173-.571.531-.571.917a1.034 1.034 0 0 0 .571.928l16.584 8.293c19.719 9.861 47.55 23.778 57.444 28.723 1.874.94 4.111.94 5.985.001 9.625-4.811 36.22-18.11 55.813-27.908l18.215-9.109c.352-.173.574-.536.574-.928 0-.386-.222-.744-.566-.913l-74.034-37.018a6.676 6.676 0 0 0-2.995-.707zm.002 80.286c-1.49 0-2.98-.341-4.338-1.022-9.891-4.944-37.722-18.861-57.442-28.722l-16.579-8.291a4.053 4.053 0 0 1-2.234-3.613c0-1.518.878-2.932 2.236-3.603l74.021-37.012a9.71 9.71 0 0 1 8.673.001l74.024 37.014a4.04 4.04 0 0 1 2.232 3.6 4.053 4.053 0 0 1-2.24 3.615l-18.208 9.105c-19.592 9.798-46.187 23.097-55.81 27.907a9.688 9.688 0 0 1-4.335 1.021z"/></g></svg>