<?xml version="1.0" encoding="utf-8"?>
<!-- Generator: Adobe Illustrator 24.0.3, SVG Export Plug-In . SVG Version: 6.00 Build 0)  -->
<svg version="1.1" id="Layer_1" xmlns="http://www.w3.org/2000/svg" xmlns:xlink="http://www.w3.org/1999/xlink" x="0px" y="0px"
	 viewBox="0 0 386 294" style="enable-background:new 0 0 386 294;" xml:space="preserve">
<style type="text/css">
	.st0{fill:#1B0B73;}
	.st1{fill:#5042BB;}
	.st2{fill:url(#SVGID_1_);}
	.st3{fill:#1D1921;}
	.st4{fill:#3420A3;}
	.st5{fill:url(#SVGID_2_);}
	.st6{fill:#E5E0FF;}
	.st7{fill:#1E0C7F;}
	.st8{fill:#1B0B72;}
	.st9{fill:none;stroke:#1B0B72;stroke-width:2;stroke-linecap:round;stroke-linejoin:round;}
	.st10{fill:none;stroke:#32218C;stroke-width:2;stroke-linecap:round;stroke-linejoin:round;}
	.st11{fill:none;stroke:#67E4CF;stroke-width:2;stroke-linecap:round;stroke-linejoin:round;}
	.st12{fill:#67E4CF;}
	.st13{fill:#32218C;}
	.st14{fill:url(#SVGID_3_);}
</style>
<path class="st0" d="M127.5,188.8h129.9l117.7,0.1v6.4c0,3.2-1.8,6-4.6,7.5l-158.5,78.7c-12.6,6.3-27.4,6.3-40.1,0l-158.8-79
	c-2.7-1.3-4.3-4-4.3-7v-6.7L127.5,188.8z"/>
<path class="st1" d="M15.4,199.7c-5.9-2.9-8.4-10.1-5.4-16.1c1.2-2.3,3.1-4.3,5.4-5.4l154.9-77.4c13.7-6.8,29.7-6.8,43.4,0
	l154.9,77.4c5.9,2.9,8.4,10.1,5.4,16.1c-1.2,2.3-3.1,4.3-5.4,5.4l-154.9,77.4c-13.7,6.8-29.7,6.8-43.4,0L15.4,199.7z"/>
<radialGradient id="SVGID_1_" cx="-526.56" cy="-599.3237" r="102.13" gradientTransform="matrix(-1 0 0 -0.55 -330.31 -113.21)" gradientUnits="userSpaceOnUse">
	<stop  offset="0" style="stop-color:#1E0C6F"/>
	<stop  offset="0.64" style="stop-color:#2D1992;stop-opacity:0.34"/>
	<stop  offset="1" style="stop-color:#3420A3;stop-opacity:0"/>
</radialGradient>
<ellipse class="st2" cx="186.8" cy="201.6" rx="162.8" ry="74.3"/>
<path class="st3" d="M127.5,142.8h129.9l117.7,0.1v6.3c0,3.2-1.8,6-4.6,7.4l-158.5,78.7c-12.6,6.3-27.5,6.3-40.1,0l-158.8-79
	c-2.7-1.3-4.3-4-4.3-7v-6.6L127.5,142.8z"/>
<path class="st4" d="M15.4,153.6c-5.9-2.9-8.4-10.1-5.4-16.1c1.2-2.3,3.1-4.3,5.4-5.4l154.9-77.4c13.7-6.8,29.7-6.8,43.4,0
	l154.9,77.4c5.9,2.9,8.4,10.1,5.4,16.1c-1.2,2.3-3.1,4.3-5.4,5.4L213.7,231c-13.7,6.8-29.7,6.8-43.4,0L15.4,153.6z"/>
<radialGradient id="SVGID_2_" cx="-521.74" cy="-636.7637" r="122.9" gradientTransform="matrix(-1 0 0 -0.55 -320.24 -176.41)" gradientUnits="userSpaceOnUse">
	<stop  offset="0" style="stop-color:#1E0C6F"/>
	<stop  offset="0.19" style="stop-color:#1F0D71;stop-opacity:0.96"/>
	<stop  offset="0.38" style="stop-color:#210F77;stop-opacity:0.86"/>
	<stop  offset="0.57" style="stop-color:#251380;stop-opacity:0.67"/>
	<stop  offset="0.76" style="stop-color:#2B188D;stop-opacity:0.42"/>
	<stop  offset="0.95" style="stop-color:#321E9E;stop-opacity:0.1"/>
	<stop  offset="1" style="stop-color:#3420A3;stop-opacity:0"/>
</radialGradient>
<ellipse class="st5" cx="190.1" cy="156.3" rx="195.9" ry="89.4"/>
<path class="st0" d="M127.5,96.6h129.9l117.7,0.1v6.4c0,3.2-1.8,6-4.6,7.4l-158.5,78.7c-12.6,6.3-27.5,6.3-40.1,0l-158.8-79
	c-2.7-1.3-4.3-4-4.3-7v-6.7L127.5,96.6z"/>
<path class="st6" d="M15.4,107.4c-5.9-2.9-8.4-10.1-5.4-16.1c1.2-2.4,3.1-4.3,5.4-5.4L170.3,8.5c13.7-6.8,29.7-6.8,43.4,0
	l154.9,77.4c5.9,2.9,8.4,10.1,5.4,16.1c-1.2,2.4-3.1,4.3-5.4,5.4l-154.9,77.4c-13.7,6.8-29.7,6.8-43.4,0L15.4,107.4z"/>
<path class="st7" d="M20.9,107.4c-5.9-2.9-8.4-10.1-5.4-16.1c1.2-2.4,3.1-4.3,5.4-5.4l149.4-74.7c13.7-6.8,29.7-6.8,43.4,0
	l149.4,74.7c5.9,2.9,8.4,10.1,5.4,16.1c-1.2,2.4-3.1,4.3-5.4,5.4l-149.4,74.7c-13.7,6.8-29.7,6.8-43.4,0L20.9,107.4z"/>
<path class="st8" d="M119,132.1c2.8-1.2,5.9-1.2,8.7,0c2.4,1.2,2.5,3.1,0.1,4.2c-2.8,1.2-5.9,1.2-8.7,0
	C116.6,135.2,116.6,133.3,119,132.1z M147.7,148.1c2.8-1.2,5.9-1.2,8.7,0c2.4,1.2,2.5,3.1,0.1,4.3c-2.8,1.2-5.9,1.2-8.7,0
	C145.3,151.2,145.3,149.3,147.7,148.1z"/>
<path class="st9" d="M123,135.1l65.6,32.8"/>
<path class="st10" d="M123,132.4l65.6,32.8"/>
<path class="st9" d="M188.6,167.9l140.7-70.3l-43.8-21.9L246.1,56"/>
<path class="st10" d="M188.6,165.2l140.7-70.3l-43.8-21.9l-39.4-19.7"/>
<path class="st11" d="M124.1,132.4l102.3-51.1 M154.1,148.2l60.9-30.5"/>
<path class="st12" d="M118.9,130.7c2.8-1.2,5.9-1.2,8.7-0.1c2.4,1.2,2.4,3.1,0,4.3c-2.8,1.2-5.9,1.2-8.7,0.1
	C116.5,133.8,116.5,131.9,118.9,130.7L118.9,130.7z M147.6,146.7c2.8-1.2,5.9-1.2,8.8-0.1c2.4,1.2,2.4,3.1,0,4.3
	c-2.8,1.2-6,1.2-8.8,0C145.3,149.8,145.3,147.9,147.6,146.7L147.6,146.7z"/>
<path class="st8" d="M72.4,87.7c12.9-6.4,34-6.5,47.1-0.1s13.4,16.7,0.5,23.1s-34,6.5-47.2,0.2S59.5,94.1,72.4,87.7L72.4,87.7z"/>
<path class="st13" d="M72.4,84.3c12.8-6.4,33.9-6.5,47-0.2s13.3,16.6,0.5,23s-33.9,6.5-47,0.2S59.5,90.7,72.4,84.3z"/>
<path class="st12" d="M80.6,88.2c8.4-4.2,22.2-4.2,30.8-0.1s8.7,10.9,0.3,15.1s-22.2,4.2-30.8,0.1c-4.3-2.1-6.5-4.8-6.5-7.5
	S76.4,90.3,80.6,88.2z"/>
<path class="st8" d="M182.5,34c-1-0.4-2-0.4-3-0.1L140,53.6c-0.8,0.4-0.6,1,0.2,1.4l3.2,1.5c1,0.4,2,0.4,3,0.1L186,36.9
	c0.8-0.4,0.7-1.1-0.2-1.4L182.5,34z M184.8,45.3c-0.8-0.4-1.8-0.5-2.6-0.2l-29.9,15c-0.6,0.3-0.3,0.9,0.6,1.3l3.2,1.5
	c0.8,0.4,1.8,0.5,2.6,0.2l29.9-15c0.6-0.3,0.3-0.9-0.6-1.3L184.8,45.3z M203,49.2c-0.9-0.4-1.9-0.5-2.8-0.2l-34.8,17.4
	c-0.7,0.4-0.5,0.9,0.4,1.4l3.2,1.5c0.9,0.4,1.9,0.5,2.8,0.1L206.6,52c0.7-0.3,0.5-0.9-0.4-1.3L203,49.2z"/>
<path class="st13" d="M182.5,31.7c-0.9-0.4-2-0.5-3-0.1L140,51.3c-0.8,0.4-0.6,1,0.2,1.4l3.2,1.6c1,0.4,2,0.4,3,0.1L186,34.6
	c0.8-0.4,0.7-1-0.2-1.4L182.5,31.7z M184.8,43c-0.8-0.4-1.8-0.5-2.6-0.2l-29.9,15c-0.6,0.3-0.3,0.9,0.6,1.3l3.2,1.5
	c0.8,0.4,1.8,0.5,2.6,0.2l29.9-15c0.6-0.3,0.3-0.9-0.6-1.3L184.8,43z M203,46.9c-0.9-0.4-1.9-0.5-2.8-0.1l-34.8,17.4
	c-0.7,0.3-0.5,1,0.4,1.4l3.2,1.5c0.9,0.4,1.9,0.5,2.8,0.1l34.8-17.4c0.7-0.3,0.5-0.9-0.4-1.3L203,46.9z"/>
<linearGradient id="SVGID_3_" gradientUnits="userSpaceOnUse" x1="96.2617" y1="126.11" x2="95.3017" y2="175.36" gradientTransform="matrix(1 0 0 1 0 -62)">
	<stop  offset="0" style="stop-color:#FFFFFF;stop-opacity:0"/>
	<stop  offset="0.58" style="stop-color:#67E4CF"/>
</linearGradient>
<path class="st14" d="M74.3,45.8h43.6v50.2H74.3V45.8z"/>
</svg>
