<?xml version="1.0" encoding="utf-8"?>
<!-- Generator: Adobe Illustrator 24.0.3, SVG Export Plug-In . SVG Version: 6.00 Build 0)  -->
<svg version="1.1" id="Layer_1" xmlns="http://www.w3.org/2000/svg" xmlns:xlink="http://www.w3.org/1999/xlink" x="0px" y="0px"
	 viewBox="0 0 386 282" style="enable-background:new 0 0 386 282;" xml:space="preserve">
<style type="text/css">
	.st0{fill:none;stroke:#5540CC;stroke-width:2;stroke-linecap:round;stroke-linejoin:round;}
	.st1{fill-rule:evenodd;clip-rule:evenodd;fill:#5540CC;}
</style>
<path class="st0" d="M127.7,130.9l98-49 M156.5,146l58.4-29.2"/>
<path class="st1" d="M122.8,129.2c2.7-1.1,5.7-1.2,8.4-0.1c2.3,1.1,2.3,3,0,4.1c-2.7,1.1-5.7,1.2-8.4,0.1
	C120.5,132.2,120.4,130.4,122.8,129.2z M150.3,144.5c2.7-1.2,5.7-1.2,8.4-0.1c2.3,1.1,2.3,3,0,4.1c-2.7,1.1-5.7,1.2-8.4,0.1
	C148,147.5,148,145.6,150.3,144.5z"/>
<path class="st0" d="M337.9,163.5l24,12c5.7,2.9,8,9.8,5.2,15.5c-1.1,2.2-2.9,4-5.2,5.2l-148.6,74.3c-13.1,6.6-28.5,6.6-41.7,0
	L23,196.2c-5.7-2.9-8-9.8-5.2-15.5c1.1-2.2,2.9-4,5.2-5.2l23.7-11.9"/>
<path class="st0" d="M338.2,119.4l23.8,11.9c5.7,2.9,8,9.8,5.2,15.5c-1.1,2.2-2.9,4-5.2,5.2l-148.7,74.3c-13.1,6.5-28.5,6.5-41.6,0
	L23,151.9c-5.7-2.9-8-9.8-5.2-15.5c1.1-2.2,2.9-4,5.2-5.2l23.4-11.7"/>
<path class="st0" d="M23,107.6c-5.7-2.9-8-9.8-5.1-15.5c1.1-2.2,2.9-4,5.1-5.1l148.7-74.3c13.1-6.5,28.5-6.5,41.7,0L362,87
	c5.7,2.9,8,9.8,5.2,15.5c-1.1,2.2-2.9,4-5.2,5.2l-148.7,74.3c-13.1,6.5-28.5,6.5-41.6,0L23,107.6z"/>
<ellipse class="st0" cx="101.7" cy="95.6" rx="31.3" ry="15.6"/>
<ellipse class="st0" cx="101.7" cy="95.6" rx="21.6" ry="10.8"/>
</svg>
