<svg xmlns="http://www.w3.org/2000/svg" style="isolation:isolate" width="386" height="436"><defs><clipPath id="a"><path d="M0 0h386v436H0z"/></clipPath></defs><g clip-path="url(#a)" fill="#5540CC"><path d="M193 278.848c-1.955 0-3.91-.445-5.692-1.337L4.907 186.31a5.856 5.856 0 0 1-3.232-5.8v-63.668a1.333 1.333 0 1 1 2.666 0v63.731c0 .044-.002.089-.007.133a3.206 3.206 0 0 0 1.765 3.22l182.401 91.2a10.098 10.098 0 0 0 8.999 0l182.403-91.2a3.254 3.254 0 0 0 1.782-2.884c0-.13-.007-.259-.024-.387a1.37 1.37 0 0 1-.011-.169v-63.644a1.333 1.333 0 1 1 2.666 0v63.565a5.86 5.86 0 0 1-3.219 5.902l-182.405 91.202a12.727 12.727 0 0 1-5.691 1.337z"/><path d="M252.358 218.094a1 1 0 0 1 1.447.9v.569c0 .764-.429 1.459-1.106 1.789a80259.14 80259.14 0 0 1-28.044 14.025.99.99 0 0 1-.973-.046.992.992 0 0 1-.474-.843v-.581c0-.752.427-1.447 1.105-1.789 4.669-2.335 22.773-11.381 28.045-14.024zm40.182-20.086v3.429l-30.596 15.301v-3.429l30.596-15.301z" fill-rule="evenodd"/><path d="M193 213.63a12.71 12.71 0 0 1-5.692-1.339l-58.695-29.346A810144.835 810144.835 0 0 1 4.906 121.091c-1.975-.976-3.256-3.046-3.256-5.27a5.857 5.857 0 0 1 3.254-5.259c23.133-11.564 90.027-45.015 137.364-68.688a1.334 1.334 0 0 1 1.192 2.384C96.123 67.932 29.229 101.382 6.099 112.945a3.207 3.207 0 0 0-1.783 2.876c0 1.218.698 2.35 1.777 2.883 20.907 10.46 77.978 38.992 123.712 61.857l58.695 29.346a10.096 10.096 0 0 0 8.998 0l62.339-31.168c45.076-22.536 99.712-49.852 120.061-60.032a3.233 3.233 0 0 0 1.784-2.886 3.208 3.208 0 0 0-1.785-2.877c-22.054-11.033-84.386-42.196-131.171-65.587l-4.078-2.039a1.332 1.332 0 1 1 1.192-2.384l4.077 2.038c46.786 23.391 109.118 54.555 131.175 65.589a5.86 5.86 0 0 1 3.256 5.26c0 2.224-1.281 4.293-3.262 5.273-20.344 10.178-74.981 37.493-120.057 60.03l-62.338 31.168A12.721 12.721 0 0 1 193 213.63z"/><path d="M142.863 189.714a1.32 1.32 0 0 1-.595-.141C94.93 165.9 28.037 132.45 4.906 120.886a5.858 5.858 0 0 1-3.256-5.259 5.845 5.845 0 0 1 3.261-5.274C27.155 99.225 90.393 67.61 137.31 44.154l49.998-24.997a12.76 12.76 0 0 1 11.384.001l54.366 27.181c46.394 23.195 106.467 53.229 128.034 64.017a5.842 5.842 0 0 1 3.255 5.271 5.856 5.856 0 0 1-3.255 5.258 735953.595 735953.595 0 0 1-131.632 65.82l-3.62 1.809a1.333 1.333 0 1 1-1.192-2.384l3.619-1.81a835531.2 835531.2 0 0 0 131.631-65.818 3.205 3.205 0 0 0 1.783-2.875c0-1.218-.698-2.35-1.777-2.884-21.571-10.791-81.644-40.824-128.038-64.019l-54.367-27.182a10.084 10.084 0 0 0-8.997-.001l-50 24.998A908496.487 908496.487 0 0 0 6.098 112.74a3.237 3.237 0 0 0-1.782 2.887c0 1.221.684 2.323 1.784 2.876 23.129 11.563 90.023 45.012 137.36 68.686a1.333 1.333 0 0 1-.597 2.525z"/><path d="M10.962 131.224l.094.011h.094l.094.011.094.012.093.011.047.012.046.011.047.011.047.012.046.011.045.012.047.011.045.011.046.012.046.022.045.012.045.023.044.011.045.023.045.011.043.023.045.023.043.023 163.474 81.196.127.057.126.068.123.069.123.068.12.08.118.068.118.08.115.08.116.079.112.08.112.091.11.08.108.091.106.091.104.08.104.103.2.182.097.103.096.102.094.091.093.103.09.102.088.114.086.103.086.102.083.114.081.114.078.114.079.103.075.125.144.228.069.114.066.125.065.114.065.125.059.126.06.125.058.125.053.126.053.125.051.125.049.125.045.137.044.126.042.136.038.137.038.125.034.137.032.137.031.136.028.137.024.137.025.137.02.136.019.136.015.138.015.148.011.137.008.136.006.148.005.137.001.148v39.989l-.001.045-.002.056-.001.046-.003.047-.004.045-.003.046-.005.057-.005.045-.007.046-.008.044-.008.046-.008.047-.009.045-.012.057-.011.046-.01.045-.013.046-.013.044-.028.092-.032.092-.034.079-.036.092-.04.079-.042.091-.045.08-.046.08-.05.08-.052.079-.056.08-.056.079-.059.069-.062.069-.032.034-.033.033-.032.035-.033.034-.036.035-.035.034-.035.033-.035.035-.036.023-.036.034-.038.033-.039.024-.038.034-.04.022-.039.035-.041.023-.04.034-.041.023-.042.023-.041.022-.042.023-.044.022-.042.024-.043.022-.043.023-.044.023-.044.023-.042.01-.045.024-.044.012-.045.022-.045.012-.045.011-.045.023-.047.011-.045.011-.093.023-.091.022-.092.013-.095.022-.093.012-.092.011h-.472l-.094-.011-.095-.012-.092-.022h-.047l-.047-.013-.048-.01-.045-.012-.047-.011-.045-.012-.046-.011-.047-.023-.044-.011-.045-.011-.045-.024-.046-.01-.044-.012-.046-.024-.044-.021-.045-.012-.044-.023-.043-.023L10.69 180.554l-.079-.034-.079-.045-.077-.046-.076-.034-.076-.046-.075-.057-.073-.045-.073-.046-.072-.057-.07-.045-.07-.057-.068-.046-.067-.057-.066-.057-.066-.057-.064-.057-.064-.057-.061-.057-.062-.068-.059-.057-.06-.068-.057-.057-.056-.069-.056-.068-.054-.068-.053-.057-.052-.08-.051-.068-.049-.069-.048-.068-.047-.068-.046-.08-.044-.069-.044-.068-.042-.08-.04-.079-.04-.069-.037-.08-.038-.079-.035-.08-.034-.08-.034-.08-.03-.079-.031-.08-.028-.08-.028-.08-.026-.079-.024-.08-.024-.091-.021-.08-.021-.091-.018-.08-.019-.091-.015-.08-.014-.079-.014-.092-.011-.091-.011-.079-.007-.092-.007-.091-.006-.08-.004-.091-.003-.091v-41.994l.002-.045.004-.091.003-.057.01-.091.005-.046.007-.046.008-.057.016-.091.031-.136.011-.046.013-.046.013-.045.029-.091.03-.091.034-.092.037-.079.039-.091.042-.08.045-.08.047-.091.049-.08.052-.068.055-.08.057-.08.059-.068.063-.08.064-.068.033-.034.103-.103.035-.023.035-.034.037-.034.038-.023.075-.068.038-.023.039-.034.04-.023.04-.034.123-.068.042-.035.084-.045.044-.023.042-.011.086-.046.089-.046.043-.011.045-.023.046-.011.044-.012.045-.022.045-.012.091-.022.277-.069.187-.023.094-.011h.094l.094-.011h.095zm-.053 2.666h-.011l-.01.011h-.051l-.02.011h-.026l-.005.012h-.019l-.005.011h-.014l-.005.011h-.013l-.005.012h-.014l-.003.011h-.009l-.004.012h-.011l-.005.011h-.007l-.001.011-.012.012-.007.011h-.007l-.006.012-.005.011-.006.011h-.004l-.006.012-.005.011-.005.012-.003.011-.004.011-.004.012-.006.011-.001.012h-.001l-.001.011h-.001l-.001.011h-.001l-.001.012h-.001v.011h-.002v.023h-.001v41.846l.001.057.002.034.001.045.003.046.002.034.005.046.004.045.006.034.006.046.007.034.008.046.007.034.009.046.02.068.01.045.012.035.012.045.013.034.013.035.014.045.03.068.016.035.017.034.017.045.018.035.018.034.019.034.02.034.019.034.022.034.022.035.021.034.046.068.024.034.024.023.025.034.025.035.025.034.027.022.026.035.028.034.029.023.028.034.028.023.03.022.03.035.03.022.031.023.032.023.032.034.032.023.033.023.033.022.102.069.036.023.036.022.037.012.036.023.048.022 165.119 82.017.018.011h.015l.02.012h.031l.007.011h.134l.009-.011h.031l.005-.012h.025l.004-.011h.019l.004-.011h.016l.004-.013h.008l.004-.01h.014l.003-.011h.009l.003-.012h.011l.003-.012h.003l.011-.011.015-.022h.005l.016-.035.005-.012h.006l.009-.022.007-.024.004-.01v-.011h.004l.002-.023h.001l.001-.012h.001v-.011h.001v-.012l.002-.011v-39.989l-.002-.113-.002-.092-.004-.091-.005-.102-.007-.091-.009-.091-.012-.092-.012-.091-.014-.091-.015-.091-.017-.091-.019-.092-.02-.09-.022-.092-.022-.091-.026-.091-.025-.092-.028-.079-.03-.091-.03-.08-.032-.091-.035-.08-.034-.091-.036-.079-.039-.092-.039-.079-.041-.08-.042-.08-.043-.08-.045-.079-.046-.08-.047-.08-.048-.08-.05-.079-.054-.069-.052-.079-.053-.069-.055-.08-.057-.068-.057-.068-.061-.069-.06-.068-.062-.068-.062-.069-.064-.068-.064-.068-.067-.057-.066-.069-.07-.057-.07-.057-.07-.068-.072-.057-.074-.057-.074-.057-.074-.046-.076-.056-.078-.057-.079-.046-.079-.057-.081-.046-.082-.045-.082-.046-.084-.045-.095-.046-163.452-81.185-.014-.011h-.021l-.005-.012h-.025l-.005-.011h-.062l-.01-.011h-.021z" fill-rule="evenodd"/><path d="M193 349.012c-1.955 0-3.91-.445-5.691-1.336L4.907 256.475a5.856 5.856 0 0 1-3.232-5.801v-63.667a1.333 1.333 0 1 1 2.666 0v63.73c0 .045-.002.088-.007.133a3.204 3.204 0 0 0 1.765 3.22L188.5 345.291a10.113 10.113 0 0 0 9 0l182.402-91.201a3.251 3.251 0 0 0 1.782-2.884c0-.13-.007-.258-.024-.385a1.399 1.399 0 0 1-.011-.17v-63.644a1.333 1.333 0 1 1 2.666 0v63.565a5.86 5.86 0 0 1-3.22 5.902l-182.404 91.202a12.726 12.726 0 0 1-5.691 1.336z"/><path d="M252.358 288.262c.31-.148.678-.138.973.046a.996.996 0 0 1 .474.853v.571c0 .762-.429 1.458-1.106 1.788-4.669 2.336-22.774 11.392-28.044 14.025a.988.988 0 0 1-.973-.047.99.99 0 0 1-.474-.842v-.581c0-.752.427-1.447 1.105-1.79 4.669-2.335 22.773-11.38 28.045-14.023zm40.182-20.086v3.43l-30.597 15.299v-3.428l30.597-15.301z" fill-rule="evenodd"/><path d="M193 283.797c-1.955 0-3.91-.446-5.692-1.338l-55.269-27.633C85.77 231.693 26.332 201.978 4.906 191.258c-1.975-.976-3.256-3.045-3.256-5.27V167.92a1.333 1.333 0 1 1 2.666 0v18.068c0 1.218.698 2.35 1.777 2.884 21.432 10.722 80.869 40.438 127.138 63.57l55.269 27.632a10.099 10.099 0 0 0 8.998 0l59.069-29.533c45.67-22.833 102.488-51.239 123.331-61.666a3.235 3.235 0 0 0 1.784-2.887v-22.626a1.333 1.333 0 1 1 2.666 0v22.626c0 2.224-1.281 4.294-3.262 5.273-20.839 10.426-77.656 38.832-123.326 61.665l-59.069 29.533a12.721 12.721 0 0 1-5.691 1.338z"/><path d="M10.962 201.392l.094.011h.094l.094.012.094.011.093.011.047.012.046.011.047.012.047.011.046.011.045.012.047.011.045.012.046.011.046.023.045.011.045.023.044.011.045.023.045.011.043.023.045.023.043.023 163.474 81.196.127.057.126.069.123.068.123.067.12.08.118.069.118.08.115.08.116.08.112.079.112.092.11.079.108.092.106.091.104.079.104.103.2.182.097.102.096.103.094.091.093.103.09.103.088.113.172.206.083.113.081.114.078.114.079.103.075.125.144.228.069.114.066.125.065.114.065.125.059.126.06.125.058.125.053.126.053.125.051.125.049.126.045.136.044.126.042.136.038.137.038.126.034.135.032.138.031.137.028.136.024.137.025.137.02.137.019.135.015.138.015.148.011.137.008.136.006.148.005.137.001.148v39.989l-.001.046-.002.056-.001.046-.003.045-.004.046-.003.046-.005.057-.005.046-.007.045-.008.045-.008.046-.008.045-.009.046-.012.057-.011.046-.01.046-.013.045-.013.045-.028.091-.032.092-.034.079-.036.092-.04.079-.042.092-.045.079-.046.08-.05.08-.052.079-.056.08-.056.08-.059.069-.062.068-.032.034-.033.034-.032.035-.033.034-.036.034-.035.034-.035.034-.035.034-.036.023-.036.034-.038.034-.039.023-.038.034-.04.023-.039.035-.041.022-.04.034-.041.023-.042.023-.041.023-.042.022-.044.023-.042.023-.043.022-.043.024-.044.022-.044.023-.042.011-.045.023-.044.012-.045.022-.045.012-.045.012-.045.022-.047.012-.045.01-.093.024-.091.022-.092.012-.095.023-.093.011-.092.011h-.472l-.094-.011-.095-.011-.092-.023h-.047l-.047-.012-.048-.011-.045-.011-.047-.012-.045-.012-.046-.01-.047-.024-.044-.01-.045-.012-.045-.023-.046-.011-.044-.012-.046-.023-.044-.022-.045-.012-.044-.022-.043-.024L10.69 250.723l-.079-.035-.079-.045-.077-.046-.076-.034-.076-.045-.075-.057-.073-.047-.073-.045-.072-.056-.07-.046-.07-.058-.068-.046-.067-.056-.066-.056-.066-.057-.064-.057-.064-.057-.061-.057-.062-.069-.059-.057-.06-.068-.057-.057-.056-.068-.056-.069-.054-.068-.053-.057-.052-.08-.051-.068-.049-.068-.048-.069-.047-.069-.046-.08-.044-.067-.044-.069-.042-.079-.04-.081-.04-.068-.037-.079-.038-.08-.035-.08-.034-.08-.034-.079-.03-.08-.031-.08-.028-.081-.028-.078-.026-.08-.024-.08-.024-.092-.021-.079-.021-.092-.018-.08-.019-.09-.015-.08-.014-.08-.014-.09-.011-.091-.011-.08-.007-.091-.007-.092-.006-.079-.004-.091-.003-.092v-41.993l.002-.046.004-.091.003-.057.01-.091.005-.046.007-.045.008-.057.016-.091.031-.137.011-.046.013-.045.013-.046.029-.091.03-.091.034-.091.037-.08.039-.091.042-.08.045-.08.047-.091.049-.08.052-.068.055-.08.057-.079.059-.069.063-.08.064-.068.033-.034.103-.103.035-.022.035-.035.037-.034.038-.023.075-.068.038-.023.039-.034.04-.023.04-.034.123-.068.042-.034.084-.046.044-.023.042-.011.086-.046.089-.045.043-.012.045-.022.046-.012.044-.011.045-.023.045-.011.091-.023.277-.069.187-.022.094-.012h.094l.094-.011h.095zm-.064 2.666l-.01.011h-.052l-.019.012h-.026l-.005.011h-.019l-.006.011h-.013l-.005.012h-.013l-.005.011h-.014l-.004.012h-.012l-.004.011h-.008l-.004.011h-.007l-.001.012-.012.011-.007.011h-.006l-.007.012-.005.011-.006.012h-.004l-.006.011-.005.011-.005.012-.003.011-.004.012-.004.011-.006.011-.001.012h-.001l-.001.011h-.001l-.001.012h-.001l-.001.011h-.001v.011h-.002v.023h-.001v41.846l.001.056.002.035.001.046.003.044.002.035.005.046.004.045.006.035.006.045.007.034.008.046.007.034.009.046.02.068.01.046.012.034.012.045.013.035.013.033.014.046.015.034.015.035.016.034.017.034.017.046.036.068.019.033.02.035.021.035.02.034.022.034.021.033.023.035.023.034.024.035.024.021.025.036.05.068.027.023.026.034.028.023.029.034.028.034.028.023.03.023.03.033.03.024.031.022.032.023.032.034.032.022.033.024.033.023.034.022.034.023.035.023.036.023.035.023.037.011.036.023.048.023 165.119 82.016.018.012h.015l.02.011h.031l.007.011h.134l.009-.011h.031l.005-.011h.025l.004-.012h.019l.004-.011h.016l.004-.012h.008l.004-.011h.013l.004-.011h.009l.003-.012h.011l.003-.012h.003l.011-.01.015-.024h.005l.016-.034.005-.011h.006l.009-.023.007-.023.004-.011v-.011h.004l.002-.023h.001l.001-.011h.001v-.012h.001v-.012l.002-.01v-39.99l-.002-.113-.002-.091-.004-.092-.005-.102-.007-.091-.009-.091-.012-.091-.012-.092-.014-.091-.015-.091-.017-.091-.019-.092-.02-.09-.022-.091-.022-.092-.026-.091-.025-.092-.028-.079-.03-.091-.03-.08-.032-.091-.035-.079-.034-.091-.036-.08-.039-.091-.039-.08-.041-.08-.042-.08-.043-.08-.045-.08-.046-.079-.047-.08-.048-.079-.05-.08-.054-.068-.052-.08-.053-.069-.055-.079-.057-.069-.057-.069-.061-.067-.06-.069-.062-.068-.062-.068-.064-.069-.064-.068-.067-.057-.066-.069-.07-.056-.07-.057-.07-.069-.072-.057-.074-.058-.074-.056-.074-.045-.076-.057-.078-.057-.079-.046-.079-.057-.081-.045-.082-.046-.082-.045-.084-.047-.095-.045-163.453-81.185-.015-.011h-.019l-.005-.011h-.025l-.004-.012h-.063l-.01-.011h-.032z" fill-rule="evenodd"/><path d="M193 418.183c-1.955 0-3.91-.445-5.692-1.337l-182.401-91.2a5.859 5.859 0 0 1-3.232-5.801v-63.667a1.333 1.333 0 0 1 2.666 0v63.73c0 .045-.002.088-.007.133a3.206 3.206 0 0 0 1.765 3.22l182.401 91.2a10.098 10.098 0 0 0 8.999 0l182.403-91.2a3.254 3.254 0 0 0 1.782-2.884c0-.131-.007-.259-.024-.387a1.37 1.37 0 0 1-.011-.169v-63.643a1.333 1.333 0 0 1 2.666 0v63.564a5.864 5.864 0 0 1-3.219 5.903l-182.405 91.201a12.727 12.727 0 0 1-5.691 1.337z"/><path d="M252.358 357.427a1.02 1.02 0 0 1 .973.046.998.998 0 0 1 .474.854v.57c0 .763-.429 1.459-1.106 1.789-4.669 2.335-22.774 11.392-28.044 14.024a.988.988 0 0 1-.973-.046.99.99 0 0 1-.474-.842v-.582a2.01 2.01 0 0 1 1.105-1.789c4.669-2.335 22.773-11.38 28.045-14.024zm40.182-20.085v3.429l-30.597 15.3v-3.428l30.597-15.301z" fill-rule="evenodd"/><path d="M193 352.963c-1.955 0-3.91-.446-5.692-1.34l-48.848-24.421A857966.367 857966.367 0 0 1 4.906 260.425c-1.975-.976-3.256-3.046-3.256-5.272v-25.2a1.333 1.333 0 0 1 2.666 0v25.2c0 1.219.698 2.351 1.777 2.884 22.437 11.226 86.532 43.269 133.559 66.78l48.848 24.422a10.093 10.093 0 0 0 8.998.001l53.094-26.546a787054.067 787054.067 0 0 0 129.306-64.654 3.233 3.233 0 0 0 1.784-2.887 1.333 1.333 0 1 1 2.666 0c0 2.225-1.281 4.295-3.262 5.275a953416.58 953416.58 0 0 1-129.302 64.651l-53.094 26.545a12.702 12.702 0 0 1-5.69 1.339z"/><path d="M10.962 270.558l.094.011h.094l.094.01.094.013.093.011.047.012.046.01.094.024.046.011.045.011.047.012.045.011.046.011.046.023.045.012.045.023.044.011.045.023.045.011.043.022.045.024.043.022 163.474 81.197.127.057.126.068.123.069.123.068.12.079.118.069.118.08.115.08.116.079.112.08.112.091.11.08.108.091.106.091.104.08.104.102.1.092.1.091.097.102.096.103.094.091.093.102.09.103.088.114.086.103.086.102.083.114.081.114.078.114.079.103.075.125.072.114.072.113.069.114.066.125.065.115.065.125.059.126.06.125.058.125.053.126.053.125.051.125.049.126.045.136.044.125.042.137.038.137.038.125.034.136.032.137.031.137.028.137.024.136.025.137.02.137.019.136.015.137.015.149.011.136.008.137.006.148.005.137.001.148v39.989l-.001.045-.002.057-.001.045-.003.046-.004.046-.003.045-.005.058-.005.045-.007.046-.008.045-.008.045-.008.046-.009.046-.012.057-.011.046-.01.045-.013.046-.013.045-.028.091-.032.091-.034.08-.036.091-.04.08-.042.091-.045.08-.046.08-.05.079-.052.08-.056.08-.056.079-.059.069-.062.068-.032.034-.033.034-.032.035-.033.034-.036.034-.035.034-.035.034-.035.035-.036.023-.036.034-.038.034-.039.023-.038.034-.04.022-.039.035-.041.023-.04.034-.041.023-.042.022-.041.024-.042.022-.044.022-.042.024-.043.022-.043.023-.044.023-.044.023-.042.011-.045.023-.044.012-.045.022-.045.012-.045.011-.045.023-.047.011-.045.011-.093.023-.091.023-.092.011-.095.024-.093.01-.092.012h-.472l-.094-.012-.095-.01-.092-.024h-.047l-.047-.011-.048-.011-.045-.012-.047-.011-.045-.012-.046-.011-.047-.023-.044-.011-.045-.011-.045-.024-.046-.01-.044-.012-.046-.023-.044-.023-.045-.011-.044-.023-.043-.023L10.69 319.888l-.079-.034-.079-.046-.077-.045-.076-.034-.076-.046-.075-.057-.073-.046-.073-.045-.072-.057-.07-.045-.07-.058-.068-.046-.067-.056-.066-.057-.066-.057-.064-.057-.064-.057-.061-.057-.062-.068-.059-.057-.06-.069-.057-.056-.056-.069-.056-.068-.054-.068-.053-.057-.052-.08-.051-.068-.049-.069-.048-.068-.047-.07-.046-.079-.044-.068-.044-.068-.042-.08-.04-.08-.04-.068-.037-.08-.038-.079-.035-.08-.034-.08-.034-.08-.03-.079-.031-.08-.028-.081-.028-.08-.026-.078-.024-.08-.024-.092-.021-.079-.021-.092-.018-.08-.019-.09-.015-.081-.014-.08-.014-.09-.011-.091-.011-.08-.007-.091-.007-.091-.006-.08-.004-.091-.003-.092v-41.993l.002-.045.004-.092.003-.056.01-.092.005-.045.007-.046.008-.057.016-.091.031-.137.011-.045.013-.046.013-.045.029-.091.03-.092.034-.091.037-.079.039-.092.042-.079.045-.08.047-.091.049-.08.052-.068.055-.081.057-.08.059-.067.063-.08.064-.068.033-.035.103-.102.035-.024.035-.033.037-.034.038-.023.075-.068.038-.023.039-.034.04-.023.04-.034.123-.069.042-.035.084-.044.044-.023.042-.012.086-.046.089-.045.043-.011.045-.024.046-.01.044-.012.045-.023.045-.011.091-.023.277-.068.187-.024.094-.01h.094l.094-.011h.095zm-.054 2.665h-.01l-.01.012h-.051l-.02.011h-.022l-.004.012h-.024l-.005.011h-.013l-.006.011h-.013l-.005.011h-.014l-.004.012H10.7l-.005.012h-.012l-.003.011h-.008l-.001.011-.012.012-.007.011h-.007l-.006.011-.005.012-.006.011h-.004l-.006.012-.005.01-.005.013-.003.011-.004.011-.004.012-.006.011-.001.011h-.001l-.001.011h-.001l-.001.012h-.002v.012h-.001v.011h-.002v.023h-.001V315.4l.001.056.002.035.001.045.003.045.002.035.005.046.004.044.006.035.006.046.007.034.008.046.007.034.009.045.01.035.01.034.01.045.012.035.012.045.013.034.013.033.014.047.015.033.015.035.016.035.017.034.017.045.018.035.018.034.019.033.02.035.021.034.02.034.022.035.021.033.023.035.023.034.024.034.024.022.025.035.025.034.025.035.027.021.026.036.028.022.029.035.028.034.028.023.03.022.03.033.03.024.031.023.032.023.032.034.032.022.033.024.033.022.068.046.07.046.036.022.037.012.036.022.048.023 165.119 82.017.018.012h.015l.016.01h.035l.007.012h.134l.009-.012h.031l.005-.01h.025l.004-.012h.019l.004-.012h.016l.004-.011h.008l.004-.011h.014l.003-.012h.009l.003-.011h.011l.003-.012h.003l.012-.011.007-.011.007-.012h.005l.016-.034.005-.012h.006l.009-.022.007-.023.004-.011.001-.012h.003l.001-.011h.001v-.011h.001l.001-.012h.001v-.011h.001v-.012l.002-.011V359.25l-.002-.114-.002-.091-.004-.091-.005-.102-.007-.092-.009-.091-.012-.09-.012-.092-.014-.091-.015-.091-.017-.092-.019-.091-.02-.09-.022-.092-.022-.091-.026-.091-.025-.092-.028-.079-.03-.091-.03-.08-.032-.091-.035-.079-.034-.092-.036-.079-.039-.092-.039-.079-.041-.08-.042-.08-.043-.08-.045-.08-.046-.08-.047-.079-.048-.08-.05-.08-.054-.068-.052-.079-.053-.069-.055-.08-.058-.068-.056-.069-.061-.068-.06-.068-.062-.069-.062-.068-.064-.068-.064-.069-.067-.056-.066-.069-.07-.057-.07-.057-.07-.068-.072-.057-.074-.058-.074-.056-.074-.046-.076-.057-.078-.056-.078-.046-.08-.057-.081-.046-.082-.046-.082-.045-.083-.046-.096-.045-163.452-81.185-.014-.011h-.02l-.006-.012h-.025l-.004-.011h-.063l-.01-.012h-.022z" fill-rule="evenodd"/></g></svg>