<svg xmlns="http://www.w3.org/2000/svg" style="isolation:isolate" width="386" height="436"><defs><clipPath id="a"><path d="M0 0h386v436H0z"/></clipPath></defs><g clip-path="url(#a)"><path d="M125.85 256.899h258.463v64.949a4.587 4.587 0 0 1-2.496 4.654L198.54 418.14a11.446 11.446 0 0 1-10.24 0L5.025 326.502a4.577 4.577 0 0 1-2.507-4.567v-65.036H125.85z" fill-rule="evenodd" fill="#4A31CF"/><path d="M254.517 358.914v3.446l-30.743 15.374v-3.446l30.743-15.374zm38.921-19.46v3.446l-30.743 15.373v-3.445l30.743-15.374z" fill-rule="evenodd" fill="#B9ADFF" fill-opacity=".65"/><linearGradient id="b" x1=".5" y1="-.01" x2=".5" y2=".53" gradientTransform="matrix(381.353 0 0 194.234 2.743 159.761)" gradientUnits="userSpaceOnUse"><stop offset="0%" stop-color="#3f24cf"/><stop offset="100%" stop-color="#10054a"/></linearGradient><path d="M5.386 261.154a4.78 4.78 0 1 1 0-8.552c33.92-16.965 158.352-79.17 183.562-91.785a9.997 9.997 0 0 1 8.944 0c25.209 12.615 149.642 74.82 183.561 91.785a4.783 4.783 0 0 1 0 8.552c-33.919 16.965-158.352 79.181-183.561 91.785a9.997 9.997 0 0 1-8.944 0c-25.21-12.604-149.642-74.82-183.562-91.785z" fill-rule="evenodd" fill="url(#b)"/><path d="M181.244 361.572a8.377 8.377 0 0 0-4.634-7.494c-24.729-12.368-140.992-70.512-164.985-82.514a3.005 3.005 0 0 0-2.919.131 3 3 0 0 0-1.42 2.551v41.051a8.374 8.374 0 0 0 4.599 7.477c24.677 12.485 141.209 71.437 165.08 83.511a2.951 2.951 0 0 0 2.875-.119 2.96 2.96 0 0 0 1.404-2.51v-42.084z" fill-rule="evenodd" fill="#1E0C7F"/><path d="M13.142 284.506v3.446l30.743 15.374v-3.446l-30.743-15.374zm78.987 40.066v3.446l30.743 15.374v-3.446l-30.743-15.374zm-78.987-28.618v3.445l30.743 15.374v-3.445l-30.743-15.374zm78.987 40.066v3.445l30.743 15.374v-3.445L92.129 336.02zm-78.987-28.619v3.446l30.743 15.374v-3.446l-30.743-15.374zm78.987 40.066v3.446l30.743 15.374v-3.446l-30.743-15.374zm-38.921-42.355v3.445l30.743 15.374v-3.445l-30.743-15.374zm78.987 40.066v3.445l30.743 15.374v-3.446l-30.743-15.373zm-78.987-28.619v3.446l30.743 15.374v-3.446l-30.743-15.374zm78.987 40.066v3.446l30.743 15.374v-3.446l-30.743-15.374zm-78.987-28.619v3.446l30.743 15.374v-3.446l-30.743-15.374zm78.987 40.066v3.446l30.743 15.374v-3.446l-30.743-15.374z" fill-rule="evenodd" fill="#9280FD" fill-opacity=".26"/><ellipse vector-effect="non-scaling-stroke" cx="170.45" cy="366.66" rx="1.66" ry="2.49" fill="#67E4CF"/><ellipse vector-effect="non-scaling-stroke" cx="170.45" cy="378.11" rx="1.66" ry="2.49" fill="#67E4CF"/><ellipse vector-effect="non-scaling-stroke" cx="170.45" cy="389.55" rx="1.66" ry="2.49" fill="#67E4CF"/><path d="M125.85 186.925h258.463v63.949a4.587 4.587 0 0 1-2.496 4.654L198.54 347.166a11.446 11.446 0 0 1-10.24 0L5.025 255.528a4.577 4.577 0 0 1-2.507-4.567v-64.036H125.85z" fill-rule="evenodd" fill="#4A31CF"/><path d="M254.517 287.941v3.445l-30.743 15.374v-3.446l30.743-15.373zm38.921-19.461v3.446L262.695 287.3v-3.446l30.743-15.374z" fill-rule="evenodd" fill="#B9ADFF" fill-opacity=".65"/><linearGradient id="c" x1=".5" y1="-.01" x2=".5" y2=".53" gradientTransform="matrix(381.21 0 0 194.234 2.815 89.787)" gradientUnits="userSpaceOnUse"><stop offset="0%" stop-color="#3f24cf"/><stop offset="100%" stop-color="#10054a"/></linearGradient><path d="M5.489 191.237a4.849 4.849 0 0 1 0-8.666l183.459-91.728a9.997 9.997 0 0 1 8.944 0l183.458 91.728a4.846 4.846 0 0 1 0 8.666l-183.458 91.728a9.997 9.997 0 0 1-8.944 0L5.489 191.237z" fill-rule="evenodd" fill="url(#c)"/><path d="M181.244 291.571a8.377 8.377 0 0 0-4.634-7.494c-24.729-12.368-140.992-70.512-164.985-82.514a3.005 3.005 0 0 0-2.919.131 3 3 0 0 0-1.42 2.551v41.051a8.374 8.374 0 0 0 4.599 7.477c24.677 12.485 141.209 71.437 165.08 83.511a2.951 2.951 0 0 0 2.875-.119 2.96 2.96 0 0 0 1.404-2.51v-42.084z" fill-rule="evenodd" fill="#1E0C7F"/><path d="M13.142 213.532v3.446l30.743 15.374v-3.446l-30.743-15.374zm78.987 40.066v3.446l30.743 15.374v-3.446l-30.743-15.374zM13.142 224.98v3.446l30.743 15.373v-3.445L13.142 224.98zm78.987 40.066v3.445l30.743 15.374v-3.445l-30.743-15.374zm-78.987-28.619v3.446l30.743 15.374v-3.446l-30.743-15.374zm78.987 40.066v3.446l30.743 15.374v-3.446l-30.743-15.374zm-38.921-42.355v3.445l30.743 15.374v-3.445l-30.743-15.374zm78.987 40.066v3.445l30.743 15.374v-3.445l-30.743-15.374zm-78.987-28.619v3.446l30.743 15.374v-3.446l-30.743-15.374zm78.987 40.066v3.446l30.743 15.374v-3.446l-30.743-15.374zm-78.987-28.618v3.445l30.743 15.374v-3.446l-30.743-15.373zm78.987 40.066v3.445l30.743 15.374v-3.446l-30.743-15.373z" fill-rule="evenodd" fill="#9280FD" fill-opacity=".26"/><ellipse vector-effect="non-scaling-stroke" cx="170.45" cy="295.69" rx="1.66" ry="2.49" fill="#67E4CF"/><ellipse vector-effect="non-scaling-stroke" cx="170.45" cy="307.13" rx="1.66" ry="2.49" fill="#67E4CF"/><ellipse vector-effect="non-scaling-stroke" cx="170.45" cy="318.58" rx="1.66" ry="2.49" fill="#67E4CF"/><path d="M125.85 114.951h258.463V179.9a4.589 4.589 0 0 1-2.496 4.655 10801908.2 10801908.2 0 0 0-183.277 91.637 11.446 11.446 0 0 1-10.24 0A30219399.5 30219399.5 0 0 1 5.025 184.555a4.579 4.579 0 0 1-2.507-4.568v-65.036H125.85z" fill-rule="evenodd" fill="#4A31CF"/><path d="M253.07 217.688c.311-.149.678-.137.973.046a.997.997 0 0 1 .474.847v.595c0 .756-.428 1.442-1.106 1.786-4.684 2.347-22.901 11.447-28.19 14.092-.31.16-.678.137-.973-.035a1.02 1.02 0 0 1-.474-.858v-.584c0-.767.428-1.454 1.106-1.797 4.684-2.336 22.902-11.448 28.19-14.092zm40.368-20.182v3.446l-30.743 15.374v-3.446l30.743-15.374z" fill-rule="evenodd" fill="#B9ADFF" fill-opacity=".65"/><path d="M5.493 119.263a4.846 4.846 0 0 1 0-8.666c34.072-17.033 158.272-79.135 183.455-91.728a9.997 9.997 0 0 1 8.944 0c25.184 12.593 149.384 74.695 183.456 91.728a4.847 4.847 0 0 1 0 8.666c-34.072 17.034-158.272 79.136-183.456 91.728a9.997 9.997 0 0 1-8.944 0c-25.183-12.592-149.383-74.694-183.455-91.728z" fill-rule="evenodd" fill="#AD9EFF"/><path d="M181.244 220.575a8.377 8.377 0 0 0-4.634-7.494c-24.729-12.368-140.992-70.512-164.985-82.514a3.005 3.005 0 0 0-2.919.131 3 3 0 0 0-1.42 2.551V174.3a8.374 8.374 0 0 0 4.599 7.477c24.677 12.485 141.209 71.437 165.08 83.511a2.951 2.951 0 0 0 2.875-.119 2.96 2.96 0 0 0 1.404-2.51v-42.084z" fill-rule="evenodd" fill="#1E0C7F"/><path d="M13.142 142.559v3.445l30.743 15.374v-3.446l-30.743-15.373zm78.987 40.066v3.445l30.743 15.374v-3.446l-30.743-15.373zm-78.987-28.619v3.446l30.743 15.374v-3.446l-30.743-15.374zm78.987 40.066v3.446l30.743 15.373v-3.445l-30.743-15.374zm-78.987-28.619v3.446l30.743 15.374v-3.446l-30.743-15.374zm78.987 40.066v3.446l30.743 15.374v-3.446l-30.743-15.374zm-38.921-42.355v3.446l30.743 15.373v-3.445l-30.743-15.374zm78.987 40.066v3.445l30.743 15.374v-3.445l-30.743-15.374zm-78.987-28.619v3.446l30.743 15.374v-3.446l-30.743-15.374zm78.987 40.066v3.446l30.743 15.374v-3.446l-30.743-15.374zm-78.987-28.618v3.445l30.743 15.374v-3.445l-30.743-15.374zm78.987 40.066v3.445l30.743 15.374v-3.446l-30.743-15.373z" fill-rule="evenodd" fill="#9280FD" fill-opacity=".26"/><ellipse vector-effect="non-scaling-stroke" cx="170.45" cy="224.71" rx="1.66" ry="2.49" fill="#67E4CF"/><ellipse vector-effect="non-scaling-stroke" cx="170.45" cy="236.16" rx="1.66" ry="2.49" fill="#67E4CF"/><ellipse vector-effect="non-scaling-stroke" cx="170.45" cy="247.61" rx="1.66" ry="2.49" fill="#67E4CF"/></g></svg>