<svg xmlns="http://www.w3.org/2000/svg" style="isolation:isolate" width="386" height="436"><defs><clipPath id="a"><path d="M0 0h386v436H0z"/></clipPath></defs><g clip-path="url(#a)" fill="#5540CC"><path d="M193.005 376.681c-64.249 0-116.52-29.24-116.52-65.182 0-.411.007-.821.025-1.23a1.44 1.44 0 0 1-.025-.264v-58.824a1.5 1.5 0 0 1 3 0v58.503c.033.135.046.272.038.412-.029.467-.038.935-.038 1.403 0 34.287 50.925 62.182 113.52 62.182 25.595 0 49.774-4.587 69.928-13.264 27.697-11.93 43.583-29.76 43.583-48.918 0-.479-.011-.958-.03-1.435a1.542 1.542 0 0 1 .03-.359v-55.712a1.5 1.5 0 1 1 3 0v56.012c0 .085-.007.167-.021.248.014.415.021.83.021 1.246 0 20.411-16.547 39.246-45.397 51.674-20.524 8.837-45.115 13.508-71.114 13.508z"/><path d="M192.572 324.745a6.312 6.312 0 0 0-6.305 6.305v27.285a6.312 6.312 0 0 0 6.305 6.304 6.312 6.312 0 0 0 6.305-6.304V331.05a6.312 6.312 0 0 0-6.305-6.305zm0 42.892c-5.13 0-9.303-4.173-9.303-9.302V331.05c0-5.13 4.173-9.303 9.303-9.303 5.13 0 9.303 4.173 9.303 9.303v27.285c0 5.129-4.173 9.302-9.303 9.302zm.428-51.275c-64.243 0-116.509-29.239-116.509-65.18a1.499 1.499 0 1 1 2.999 0c0 34.287 50.92 62.182 113.51 62.182 62.591 0 113.512-27.895 113.512-62.182a1.499 1.499 0 1 1 2.998 0c0 35.941-52.266 65.18-116.51 65.18z"/><path d="M193.005 312.681c-64.249 0-116.52-29.24-116.52-65.182 0-.411.007-.821.025-1.23a1.44 1.44 0 0 1-.025-.264v-58.824a1.5 1.5 0 1 1 3 0v58.503c.033.135.046.272.038.412-.029.467-.038.935-.038 1.403 0 34.287 50.925 62.182 113.52 62.182 25.595 0 49.774-4.587 69.928-13.264 27.697-11.93 43.583-29.76 43.583-48.918 0-.479-.011-.958-.03-1.435a1.542 1.542 0 0 1 .03-.359v-55.712a1.5 1.5 0 1 1 3 0v56.012c0 .085-.007.167-.021.248.014.415.021.83.021 1.246 0 20.411-16.547 39.246-45.397 51.674-20.524 8.837-45.115 13.508-71.114 13.508z"/><path d="M192.572 261.746a6.311 6.311 0 0 0-6.305 6.304v27.285a6.312 6.312 0 0 0 6.305 6.304 6.312 6.312 0 0 0 6.305-6.304V268.05a6.311 6.311 0 0 0-6.305-6.304zm0 42.891c-5.13 0-9.303-4.173-9.303-9.302V268.05c0-5.129 4.173-9.302 9.303-9.302 5.13 0 9.303 4.173 9.303 9.302v27.285c0 5.129-4.173 9.302-9.303 9.302zm.428-52.275c-64.243 0-116.509-29.239-116.509-65.18a1.499 1.499 0 1 1 2.999 0c0 34.287 50.92 62.182 113.51 62.182 62.591 0 113.512-27.895 113.512-62.182a1.499 1.499 0 1 1 2.998 0c0 35.941-52.266 65.18-116.51 65.18z"/><path d="M193.005 248.681c-64.249 0-116.52-29.24-116.52-65.182 0-.411.007-.821.025-1.231a1.421 1.421 0 0 1-.025-.263v-57.506a1.5 1.5 0 1 1 3 0v57.185c.033.134.046.273.038.413a22.56 22.56 0 0 0-.038 1.402c0 34.287 50.925 62.182 113.52 62.182 62.59 0 113.511-27.895 113.511-62.182 0-.48-.011-.958-.03-1.435a1.542 1.542 0 0 1 .03-.359v-55.712a1.5 1.5 0 1 1 3 0v56.012c0 .085-.007.168-.021.248.014.415.021.83.021 1.246 0 35.942-52.267 65.182-116.511 65.182z"/><path d="M192.572 199.746a6.311 6.311 0 0 0-6.305 6.304v27.285a6.312 6.312 0 0 0 6.305 6.305 6.312 6.312 0 0 0 6.305-6.305V206.05a6.311 6.311 0 0 0-6.305-6.304zm0 42.892c-5.13 0-9.303-4.173-9.303-9.303V206.05c0-5.13 4.173-9.303 9.303-9.303 5.13 0 9.303 4.173 9.303 9.303v27.285c0 5.13-4.173 9.303-9.303 9.303zM193 62.318c-10.86 0-21.604.845-31.931 2.51C113.036 72.573 79.49 97.111 79.49 124.5c0 34.287 50.92 62.182 113.51 62.182 62.591 0 113.512-27.895 113.512-62.182 0-27.293-33.397-51.807-81.213-59.614-10.444-1.704-21.31-2.568-32.299-2.568zm0 127.363c-64.243 0-116.509-29.24-116.509-65.181 0-14.555 8.333-28.303 24.098-39.758 15.055-10.939 36.364-19.062 60.002-22.874 10.485-1.691 21.389-2.549 32.409-2.549 11.15 0 22.18.877 32.781 2.607 23.549 3.845 44.767 11.977 59.746 22.899 15.69 11.439 23.983 25.159 23.983 39.675 0 35.941-52.266 65.181-116.51 65.181z"/><circle vector-effect="non-scaling-stroke" cx="192.46" cy="208.65" r="3.28"/><circle vector-effect="non-scaling-stroke" cx="192.46" cy="270.65" r="3.28"/><circle vector-effect="non-scaling-stroke" cx="192.46" cy="333.65" r="3.28"/><circle vector-effect="non-scaling-stroke" cx="192.46" cy="220.65" r="3.28"/><circle vector-effect="non-scaling-stroke" cx="192.46" cy="282.65" r="3.28"/><circle vector-effect="non-scaling-stroke" cx="192.46" cy="345.65" r="3.28"/><circle vector-effect="non-scaling-stroke" cx="192.46" cy="232.65" r="3.28"/><circle vector-effect="non-scaling-stroke" cx="192.46" cy="294.65" r="3.28"/><circle vector-effect="non-scaling-stroke" cx="192.46" cy="357.65" r="3.28"/></g></svg>