<svg xmlns="http://www.w3.org/2000/svg" style="isolation:isolate" width="386" height="436"><defs><clipPath id="a"><path d="M0 0h386v436H0z"/></clipPath></defs><g clip-path="url(#a)"><path d="M143.57 253.994c14.98-3.959 31.75-6.176 49.44-6.176 17.69 0 34.45 2.217 49.43 6.176h65.58v56.012h-.03c.02.497.03.995.03 1.494 0 35.147-51.54 63.682-115.01 63.682-63.48 0-115.02-28.535-115.02-63.682 0-.499.01-.997.04-1.494h-.04v-56.012h65.58z" fill-rule="evenodd" fill="#4A31CF"/><path d="M200.381 332.05a7.808 7.808 0 0 0-7.804-7.803 7.808 7.808 0 0 0-7.804 7.803v27.285a7.809 7.809 0 0 0 7.804 7.804 7.809 7.809 0 0 0 7.804-7.804V332.05z" fill-rule="evenodd" fill="#1E0C7F"/><linearGradient id="b" x1=".5" y1="0" x2=".5" y2="1.03" gradientTransform="matrix(230.026 0 0 127.364 77.992 188.819)" gradientUnits="userSpaceOnUse"><stop offset="0%" stop-color="#3f24cf"/><stop offset="100%" stop-color="#10054a"/></linearGradient><ellipse vector-effect="non-scaling-stroke" cx="193" cy="252.5" rx="115.01" ry="63.68" fill="url(#b)"/><path d="M143.57 188.994c14.98-3.959 31.75-6.176 49.44-6.176 17.69 0 34.45 2.217 49.43 6.176h65.58v56.012h-.03c.02.497.03.995.03 1.494 0 35.147-51.54 63.682-115.01 63.682-63.48 0-115.02-28.535-115.02-63.682 0-.499.01-.997.04-1.494h-.04v-56.012h65.58z" fill-rule="evenodd" fill="#4A31CF"/><path d="M200.381 268.05a7.808 7.808 0 0 0-7.804-7.803 7.808 7.808 0 0 0-7.804 7.803v27.285a7.809 7.809 0 0 0 7.804 7.804 7.809 7.809 0 0 0 7.804-7.804V268.05z" fill-rule="evenodd" fill="#1E0C7F"/><linearGradient id="c" x1=".5" y1="0" x2=".5" y2="1.03" gradientTransform="matrix(230.026 0 0 127.364 77.992 123.819)" gradientUnits="userSpaceOnUse"><stop offset="0%" stop-color="#3f24cf"/><stop offset="100%" stop-color="#10054a"/></linearGradient><ellipse vector-effect="non-scaling-stroke" cx="193" cy="187.5" rx="115.01" ry="63.68" fill="url(#c)"/><path d="M143.57 123.994c14.98-3.959 31.75-6.176 49.44-6.176 17.69 0 34.45 2.217 49.43 6.176h65.58v56.012h-.03c.02.497.03.995.03 1.494 0 35.147-51.54 63.682-115.01 63.682-63.48 0-115.02-28.535-115.02-63.682 0-.499.01-.997.04-1.494h-.04v-56.012h65.58z" fill-rule="evenodd" fill="#4A31CF"/><path d="M200.381 204.05a7.808 7.808 0 0 0-7.804-7.803 7.808 7.808 0 0 0-7.804 7.803v27.285a7.809 7.809 0 0 0 7.804 7.804 7.809 7.809 0 0 0 7.804-7.804V204.05z" fill-rule="evenodd" fill="#1E0C7F"/><ellipse vector-effect="non-scaling-stroke" cx="193" cy="122.5" rx="115.01" ry="63.68" fill="#AD9EFF"/><circle vector-effect="non-scaling-stroke" cx="192.46" cy="205.65" r="3.28" fill="#67E4CF"/><circle vector-effect="non-scaling-stroke" cx="192.46" cy="269.65" r="3.28" fill="#67E4CF"/><circle vector-effect="non-scaling-stroke" cx="192.46" cy="333.65" r="3.28" fill="#67E4CF"/><circle vector-effect="non-scaling-stroke" cx="192.46" cy="217.65" r="3.28" fill="#67E4CF"/><circle vector-effect="non-scaling-stroke" cx="192.46" cy="281.65" r="3.28" fill="#67E4CF"/><circle vector-effect="non-scaling-stroke" cx="192.46" cy="345.65" r="3.28" fill="#E338AA"/><circle vector-effect="non-scaling-stroke" cx="192.46" cy="229.65" r="3.28" fill="#67E4CF"/><circle vector-effect="non-scaling-stroke" cx="192.46" cy="293.65" r="3.28" fill="#E338AA"/><circle vector-effect="non-scaling-stroke" cx="192.46" cy="357.65" r="3.28" fill="#67E4CF"/></g></svg>