<svg xmlns="http://www.w3.org/2000/svg" style="isolation:isolate" viewBox="0 0 20 20"><defs><clipPath id="a"><path d="M0 0h20v20H0z"/></clipPath></defs><g clip-path="url(#a)"><linearGradient id="b" x1=".879" x2=".301" y1=".932" y2=".035" gradientTransform="matrix(14.679 0 0 20 2.66 0)" gradientUnits="userSpaceOnUse"><stop offset="0%" stop-color="#de00b8"/><stop offset="7.913%" stop-color="#e109b1"/><stop offset="100%" stop-color="#ff6d62"/></linearGradient><path fill="url(#b)" d="M9.992 0c.168 0 .344.04.496.128l6.362 3.673a.987.987 0 0 1 .489.849v10.651a.958.958 0 0 1-.481.873l-6.362 3.697a.938.938 0 0 1-.496.128.997.997 0 0 1-.496-.128l-6.362-3.673a.957.957 0 0 1-.481-.872V4.666a.945.945 0 0 1 .489-.849L9.512.144A.806.806 0 0 1 9.992 0zm5.41 11.628l-4.906 2.833a.938.938 0 0 1-.496.128.997.997 0 0 1-.496-.128l-4.906-2.833v3.169L10 17.918l5.402-3.121v-3.169zm0-5.282l-4.906 2.833a.938.938 0 0 1-.496.128.997.997 0 0 1-.496-.128L4.598 6.346v3.041L10 12.509l5.402-3.122V6.346zm-9.86-1.688L10 7.227l4.458-2.569L10 2.081c-.008.008-4.458 2.577-4.458 2.577z"/></g></svg>