<svg xmlns="http://www.w3.org/2000/svg" style="isolation:isolate" viewBox="0 0 20 20"><defs><clipPath id="a"><path d="M0 0h20v20H0z"/></clipPath></defs><g clip-path="url(#a)"><linearGradient id="b" x1=".821" x2=".269" y1="1.045" y2=".108" gradientTransform="matrix(7.996 0 0 8 12.004 0)" gradientUnits="userSpaceOnUse"><stop offset="0%" stop-color="#009dff"/><stop offset="100%" stop-color="#30d7ff"/></linearGradient><path fill="url(#b)" fill-rule="evenodd" d="M13.04 8c-.29 0-.549-.114-.736-.3a1.036 1.036 0 0 1-.3-.736V1.036c0-.29.114-.549.3-.735.187-.187.446-.301.736-.301h5.924C19.534 0 20 .466 20 1.036v5.928C20 7.534 19.534 8 18.964 8H13.04zm1.046-5.917v3.844h3.843V2.083h-3.843z"/><linearGradient id="c" x1="-.118" x2=".937" y1=".087" y2="1.164" gradientTransform="matrix(16.479 0 0 16.477 0 3.523)" gradientUnits="userSpaceOnUse"><stop offset="0%" stop-color="#ffd130"/><stop offset="26.09%" stop-color="#ffaa40"/><stop offset="54.48%" stop-color="#fe854f"/><stop offset="77.59%" stop-color="#fe6f59"/><stop offset="92.35%" stop-color="#fe675c"/></linearGradient><path fill="url(#c)" d="M8.245 3.523c.569 0 1.035.466 1.035 1.036v6.166h6.163c.57 0 1.036.466 1.036 1.036v7.202A1.04 1.04 0 0 1 15.443 20H1.036A1.04 1.04 0 0 1 0 18.963V4.559c0-.29.114-.549.3-.736.187-.186.446-.3.736-.3h7.209zm1.035 9.285v5.13h5.117v-5.13H9.28zm-7.198 0v5.13h5.116v-5.13H2.082zm0-7.202v5.129h5.116V5.606H2.082z"/></g></svg>