<svg xmlns="http://www.w3.org/2000/svg" style="isolation:isolate" viewBox="0 0 20 20"><defs><clipPath id="a"><path d="M0 0h20v20H0z"/></clipPath></defs><g clip-path="url(#a)"><linearGradient id="b" x1=".186" x2=".754" y1=".02" y2="1.16" gradientTransform="matrix(9.492 0 0 12.967 5.163 7.032)" gradientUnits="userSpaceOnUse"><stop offset="0%" stop-color="#ff6d62"/><stop offset="100%" stop-color="#de00b8"/></linearGradient><path fill="url(#b)" d="M9.436 7.161c.246-.131.309-.14.51-.121h.027c.137.018.264.056.392.121l3.817 2.253h.009c.246.159.419.419.455.717.009.047 0 .056.009.103v6.565a1.027 1.027 0 0 1-.464.829l-3.817 2.253a.964.964 0 0 1-.929 0l-3.817-2.253a1.002 1.002 0 0 1-.465-.829v-6.574c0-.159.019-.187.037-.261a.959.959 0 0 1 .428-.559h.009l3.799-2.244zm-2.423 7.17v1.928L9.9 17.963l2.888-1.704v-1.928l-2.414 1.425a.921.921 0 0 1-.838.047c-.046-.019-.055-.028-.091-.047l-2.432-1.425zm5.766-3.538L9.891 9.088c-.965.568-1.922 1.137-2.888 1.705v1.341l2.888 1.704 2.888-1.704v-1.341z"/><linearGradient id="c" x1=".511" x2=".449" y1=".84" y2=".272" gradientTransform="scale(20 13.83)" gradientUnits="userSpaceOnUse"><stop offset="0%" stop-color="#077fff"/><stop offset="100%" stop-color="#00c9ff"/></linearGradient><path fill="url(#c)" d="M3.287 12.86a.98.98 0 0 1-.52.866.901.901 0 0 1-.983-.093 4.627 4.627 0 0 1-1.039-1.117C-.066 11.277-.23 9.629.326 8.241c.556-1.397 1.831-2.449 3.28-2.756.318-2.3 1.958-4.377 4.126-5.14A6.126 6.126 0 0 1 9.791 0c2.286.019 4.527 1.434 5.557 3.585 2.286.345 4.29 2.272 4.609 4.74.237 1.853-.519 3.781-1.94 4.991a.896.896 0 0 1-.966.131.925.925 0 0 1-.519-.838v-.075a.9.9 0 0 1 .328-.708c.474-.4.847-.922 1.057-1.508a3.719 3.719 0 0 0-.511-3.464 3.553 3.553 0 0 0-2.714-1.406s-.018 0-.046-.01a.908.908 0 0 1-.473-.177c-.019-.018-.046-.028-.064-.046a.919.919 0 0 1-.264-.401c-.073-.149-.128-.298-.201-.447-.583-1.192-1.721-2.095-3.015-2.365-1.403-.298-2.933.177-3.944 1.211a4.54 4.54 0 0 0-1.276 3.119s-.009.065-.018.159a.869.869 0 0 1-.182.447.233.233 0 0 1-.064.065.944.944 0 0 1-.72.279c-.136.019-.273.037-.4.056-1.103.196-2.032 1.192-2.159 2.347-.101.912.318 1.853 1.047 2.421a.991.991 0 0 1 .374.754z"/></g></svg>