<svg xmlns="http://www.w3.org/2000/svg" style="isolation:isolate" viewBox="0 0 20 20"><defs><clipPath id="a"><path d="M0 0h20v20H0z"/></clipPath></defs><g clip-path="url(#a)"><linearGradient id="b" x1=".179" x2=".946" y1=".122" y2="1.023" gradientTransform="scale(20)" gradientUnits="userSpaceOnUse"><stop offset="0%" stop-color="#61e5bc"/><stop offset="100%" stop-color="#0095ff"/></linearGradient><path fill="url(#b)" fill-rule="evenodd" d="M18.744 0C19.437 0 20 .546 20 1.219v2.413c0 .673-.563 1.219-1.256 1.219-.693 0-1.256-.546-1.256-1.219V2.438H9.443l4.677 6.915c.141.209.208.445.206.678.002.233-.065.469-.206.679l-4.635 6.852h8.003v-1.194c0-.672.563-1.219 1.256-1.219.693 0 1.256.547 1.256 1.219v2.413c0 .673-.563 1.219-1.256 1.219H1.256C.563 20 0 19.454 0 18.781c0-.35.153-.666.397-.889l5.316-7.861L.206 1.888A1.19 1.19 0 0 1 0 1.22v-.002A1.22 1.22 0 0 1 .567.2c.212-.135.451-.2.688-.2h17.489zM3.583 2.438l4.676 6.915c.142.209.208.445.206.678.002.233-.064.469-.206.679l-4.634 6.852h2.856l5.093-7.531-5.136-7.593H3.583z"/></g></svg>