<svg xmlns="http://www.w3.org/2000/svg" style="isolation:isolate" viewBox="0 0 20 20"><defs><clipPath id="a"><path d="M0 0h20v20H0z"/></clipPath></defs><g clip-path="url(#a)"><linearGradient id="b" x1=".5" x2=".5" y1=".16" y2=".718" gradientTransform="matrix(10.376 0 0 12.519 4.758 3.771)" gradientUnits="userSpaceOnUse"><stop offset="0%" stop-color="#ffd719"/><stop offset="100%" stop-color="#ffa525"/></linearGradient><path fill="url(#b)" d="M9.944 14.283l-3.399-2.108V9.003l2.941 1.823a.864.864 0 0 0 .917 0l2.945-1.83v3.171l-3.404 2.116zm.006-8.505l2.551 1.583L9.944 8.95 7.392 7.368l2.558-1.59zm5.185 1.582v-.002a.981.981 0 0 0-.007-.109l-.005-.03a1.178 1.178 0 0 0-.022-.109 1.47 1.47 0 0 0-.034-.103.89.89 0 0 0-.046-.099l-.011-.019a.963.963 0 0 0-.046-.072l-.018-.025a.846.846 0 0 0-.054-.065l-.014-.017a1.042 1.042 0 0 0-.077-.072l-.019-.015a1.117 1.117 0 0 0-.07-.05l-.012-.009-4.293-2.661a.862.862 0 0 0-.917 0l-4.199 2.61a.928.928 0 0 0-.533.847v5.299l.001.014a.936.936 0 0 0 .434.824l4.293 2.662a.873.873 0 0 0 .917-.001l4.297-2.67a.933.933 0 0 0 .434-.813l.001-.016V7.36z"/><linearGradient id="c" x1=".521" x2=".521" y1="1.028" y2=".129" gradientTransform="matrix(20 0 0 18.824 0 .588)" gradientUnits="userSpaceOnUse"><stop offset="0%" stop-color="#7645e4"/><stop offset="47%" stop-color="#565beb"/><stop offset="100%" stop-color="#0096ff"/></linearGradient><path fill="url(#c)" d="M5.707.588c.493 0 .893.415.893.927s-.4.927-.893.927H3.531l-1.744 1.81v11.496l1.744 1.81h2.176c.493 0 .893.415.893.927s-.4.927-.893.927H3.161a.878.878 0 0 1-.632-.272L.262 16.787A.94.94 0 0 1 0 16.132V3.868c0-.246.094-.481.262-.655L2.529.86a.878.878 0 0 1 .632-.272h2.546zm11.132 0c.237 0 .464.098.632.272l2.267 2.353a.942.942 0 0 1 .262.655v12.264a.94.94 0 0 1-.262.655l-2.267 2.353a.878.878 0 0 1-.632.272h-2.546c-.493 0-.893-.415-.893-.927s.4-.927.893-.927h2.176l1.744-1.81V4.252l-1.744-1.81h-2.176c-.493 0-.893-.415-.893-.927s.4-.927.893-.927h2.546z"/></g></svg>