<svg xmlns="http://www.w3.org/2000/svg" style="isolation:isolate" viewBox="0 0 20 20"><defs><clipPath id="a"><path d="M0 0h20v20H0z"/></clipPath></defs><g clip-path="url(#a)"><linearGradient id="b" x1=".861" x2=".181" y1=".876" y2=".232" gradientTransform="matrix(20 0 0 19.746 0 .127)" gradientUnits="userSpaceOnUse"><stop offset="0%" stop-color="#ff2a7a"/><stop offset="100%" stop-color="#ffd65f"/></linearGradient><path fill="url(#b)" fill-rule="evenodd" d="M8.109 4.545L10.35.665c.201-.35.57-.543.947-.538h5.091c.416 0 .777.237.956.583l2.512 4.349c.099.171.145.359.144.543.001.185-.045.372-.144.544L17.63 10l2.226 3.854c.099.172.145.359.144.544.001.184-.045.371-.144.543l-2.512 4.349c-.179.346-.54.583-.956.583h-5.091a1.074 1.074 0 0 1-.947-.538l-2.217-3.839H3.612a1.075 1.075 0 0 1-.93-.537L.144 10.564A1.07 1.07 0 0 1 0 10.021a1.068 1.068 0 0 1 .144-.543l2.538-4.395c.199-.344.559-.537.93-.538h4.497zm7.659 6.533H11.9l-1.918 3.32 1.92 3.324h3.863l1.92-3.324-1.917-3.32zm-7.67-4.382H4.235l-1.92 3.325 1.92 3.324h3.863l1.92-3.324-1.92-3.325zm7.667-4.418h-3.863l-1.92 3.324 1.918 3.32h3.868l1.917-3.32-1.92-3.324z"/><linearGradient id="c" x1=".911" x2=".431" y1=".183" y2=".544" gradientTransform="matrix(20 0 0 19.746 0 .127)" gradientUnits="userSpaceOnUse"><stop offset="0%" stop-color="#00d3ff"/><stop offset="100%" stop-color="#8a00ff" stop-opacity="0"/></linearGradient><path fill="url(#c)" fill-rule="evenodd" d="M8.109 4.545L10.35.665c.201-.35.57-.543.947-.538h5.091c.416 0 .777.237.956.583l2.512 4.349c.099.171.145.359.144.543.001.185-.045.372-.144.544L17.63 10l2.226 3.854c.099.172.145.359.144.544.001.184-.045.371-.144.543l-2.512 4.349c-.179.346-.54.583-.956.583h-5.091a1.074 1.074 0 0 1-.947-.538l-2.217-3.839H3.612a1.075 1.075 0 0 1-.93-.537L.144 10.564A1.07 1.07 0 0 1 0 10.021a1.068 1.068 0 0 1 .144-.543l2.538-4.395c.199-.344.559-.537.93-.538h4.497zm7.659 6.533H11.9l-1.918 3.32 1.92 3.324h3.863l1.92-3.324-1.917-3.32zm-7.67-4.382H4.235l-1.92 3.325 1.92 3.324h3.863l1.92-3.324-1.92-3.325zm7.667-4.418h-3.863l-1.92 3.324 1.918 3.32h3.868l1.917-3.32-1.92-3.324z"/><linearGradient id="d" x1="1.222" x2=".604" y1=".751" y2=".503" gradientTransform="matrix(20 0 0 19.746 0 .127)" gradientUnits="userSpaceOnUse"><stop offset="0%" stop-color="#a500ff"/><stop offset="100%" stop-color="#8a00ff" stop-opacity="0"/></linearGradient><path fill="url(#d)" fill-rule="evenodd" d="M8.109 4.545L10.35.665c.201-.35.57-.543.947-.538h5.091c.416 0 .777.237.956.583l2.512 4.349c.099.171.145.359.144.543.001.185-.045.372-.144.544L17.63 10l2.226 3.854c.099.172.145.359.144.544.001.184-.045.371-.144.543l-2.512 4.349c-.179.346-.54.583-.956.583h-5.091a1.074 1.074 0 0 1-.947-.538l-2.217-3.839H3.612a1.075 1.075 0 0 1-.93-.537L.144 10.564A1.07 1.07 0 0 1 0 10.021a1.068 1.068 0 0 1 .144-.543l2.538-4.395c.199-.344.559-.537.93-.538h4.497zm7.659 6.533H11.9l-1.918 3.32 1.92 3.324h3.863l1.92-3.324-1.917-3.32zm-7.67-4.382H4.235l-1.92 3.325 1.92 3.324h3.863l1.92-3.324-1.92-3.325zm7.667-4.418h-3.863l-1.92 3.324 1.918 3.32h3.868l1.917-3.32-1.92-3.324z"/><linearGradient id="e" x1=".557" x2=".546" y1="-.07" y2=".303" gradientTransform="matrix(20 0 0 19.746 0 .127)" gradientUnits="userSpaceOnUse"><stop offset="0%" stop-color="#0f9"/><stop offset="100%" stop-color="#00e3ff" stop-opacity="0"/></linearGradient><path fill="url(#e)" fill-rule="evenodd" d="M8.109 4.545L10.35.665c.201-.35.57-.543.947-.538h5.091c.416 0 .777.237.956.583l2.512 4.349c.099.171.145.359.144.543.001.185-.045.372-.144.544L17.63 10l2.226 3.854c.099.172.145.359.144.544.001.184-.045.371-.144.543l-2.512 4.349c-.179.346-.54.583-.956.583h-5.091a1.074 1.074 0 0 1-.947-.538l-2.217-3.839H3.612a1.075 1.075 0 0 1-.93-.537L.144 10.564A1.07 1.07 0 0 1 0 10.021a1.068 1.068 0 0 1 .144-.543l2.538-4.395c.199-.344.559-.537.93-.538h4.497zm7.659 6.533H11.9l-1.918 3.32 1.92 3.324h3.863l1.92-3.324-1.917-3.32zm-7.67-4.382H4.235l-1.92 3.325 1.92 3.324h3.863l1.92-3.324-1.92-3.325zm7.667-4.418h-3.863l-1.92 3.324 1.918 3.32h3.868l1.917-3.32-1.92-3.324z"/></g></svg>