<svg xmlns="http://www.w3.org/2000/svg" style="isolation:isolate" viewBox="0 0 20 20"><defs><clipPath id="a"><path d="M0 0h20v20H0z"/></clipPath></defs><g clip-path="url(#a)"><linearGradient id="b" x1=".484" x2=".484" y1="-.265" y2=".862" gradientTransform="matrix(4.401 0 0 19.992 -.127 .004)" gradientUnits="userSpaceOnUse"><stop offset="0%" stop-color="#ea1fa8"/><stop offset="100%" stop-color="#fa0"/></linearGradient><path fill="url(#b)" d="M4.274 14.213a14.979 14.979 0 0 0-.857-4.826c-.791-2.303-1.073-4.808-.154-7.062.065-.161.149-.322.149-.322.277-.675-.003-1.508-.625-1.842C2.159-.177 1.29.048.907.658.543 1.237.356 1.927.191 2.612c-.623 2.596-.28 5.393.596 7.886.798 2.297.876 4.916.114 7.239-.04.122-.106.297-.106.297-.03.081-.04.101-.062.185-.238.923.67 1.98 1.699 1.744.522-.12.902-.562 1.09-1.084.523-1.453.746-3.016.752-4.566v-.1z"/><linearGradient id="c" x1="-1.313" x2="-1.313" y1="-.265" y2=".862" gradientTransform="matrix(4.407 0 0 20 7.793 0)" gradientUnits="userSpaceOnUse"><stop offset="0%" stop-color="#ea1fa8"/><stop offset="100%" stop-color="#fa0"/></linearGradient><path fill="url(#c)" d="M12.2 14.215a14.99 14.99 0 0 0-.856-4.826c-.791-2.303-1.074-4.808-.155-7.062.066-.161.149-.323.149-.323.225-.546.113-1.206-.311-1.613A1.46 1.46 0 0 0 9.403.143c-.558.279-.81.938-1.028 1.577-.955 2.808-.658 5.941.338 8.78.806 2.319.876 4.916.114 7.239-.04.122-.106.298-.106.298-.03.081-.04.101-.062.184-.2.779.38 1.673 1.217 1.77.632.073 1.267-.325 1.508-.94.598-1.527.821-3.181.816-4.836z"/><linearGradient id="d" x1="-3.113" x2="-3.113" y1="-.265" y2=".862" gradientTransform="matrix(4.406 0 0 19.997 15.72 .003)" gradientUnits="userSpaceOnUse"><stop offset="0%" stop-color="#ea1fa8"/><stop offset="100%" stop-color="#fa0"/></linearGradient><path fill="url(#d)" d="M20.127 14.215a14.715 14.715 0 0 0-.838-4.771c-.799-2.297-1.092-4.863-.174-7.117.066-.161.149-.323.149-.323.287-.697-.016-1.57-.711-1.885-.68-.307-1.542.016-1.895.726-.558 1.122-.812 2.391-.904 3.658-.149 2.028.208 4.067.886 5.997.797 2.294.863 4.863.141 7.153-.049.157-.134.384-.134.384l-.034.091c-.024.083-.032.103-.048.188-.147.793.498 1.644 1.334 1.683.614.028 1.193-.379 1.425-.984.583-1.52.807-3.201.803-4.8z"/></g></svg>